<?xml version="1.0" encoding="UTF-8" standalone="no"?>
<!-- Created with Inkscape (http://www.inkscape.org/) -->

<svg
   version="1.1"
   id="svg2"
   width="1122.5197"
   height="793.70081"
   viewBox="0 0 1122.5197 793.70081"
   sodipodi:docname="logo_dmr.pdf"
   xmlns:inkscape="http://www.inkscape.org/namespaces/inkscape"
   xmlns:sodipodi="http://sodipodi.sourceforge.net/DTD/sodipodi-0.dtd"
   xmlns="http://www.w3.org/2000/svg"
   xmlns:svg="http://www.w3.org/2000/svg">
  <defs
     id="defs6" />
  <sodipodi:namedview
     id="namedview4"
     pagecolor="#ffffff"
     bordercolor="#000000"
     borderopacity="0.25"
     inkscape:showpageshadow="2"
     inkscape:pageopacity="0.0"
     inkscape:pagecheckerboard="0"
     inkscape:deskcolor="#d1d1d1"
     showgrid="false" />
  <g
     id="g10"
     inkscape:groupmode="layer"
     inkscape:label="Page 1"
     transform="matrix(1.3333333,0,0,-1.3333333,0,793.7008)">
    <g
       id="g12">
      <g
         id="g14">
        <path
           d="m 402.4962,272.9392 9.2902,0.0769 -0.0737,59.1154 45.2381,40.7763 0.0647,-50.6483 9.2803,8.3974 -0.0802,62.3506 -63.7951,-57.5073 z"
           style="fill:#161d38;fill-opacity:1;fill-rule:nonzero;stroke:none"
           id="path16" />
        <path
           d="m 402.4037,349.1614 9.2776,8.3997 -0.0309,26.1397 -61.5722,54.4484 0.2061,-165.5989 9.2902,0.0678 -0.1808,145.5763 42.9712,-38.0069 z"
           style="fill:#161d38;fill-opacity:1;fill-rule:nonzero;stroke:none"
           id="path18" />
        <path
           d="m 385.4608,450.4714 44.0586,39.6697 0.0714,-58.7287 v -0.0318 l 0.0715,-57.5543 9.2769,8.3338 -0.0553,45.6509 0.002,0.233 -0.015,11.734 v 0 l -0.0867,70.4582 -62.6182,-56.3964 0.0337,-25.5084 9.298,-8.1867 -0.0366,30.3267 z"
           style="fill:#161d38;fill-opacity:1;fill-rule:nonzero;stroke:none"
           id="path20" />
        <path
           d="m 448.151,448.1459 0.0124,-11.7363 34.1178,30.7613 0.239,-193.6231 9.2903,0.0655 -0.2642,213.6458 z"
           style="fill:#161d38;fill-opacity:1;fill-rule:nonzero;stroke:none"
           id="path22" />
      </g>
      <path
         d="m 304.59,173.1643 c 0,8.9348 -3.7167,13.4024 -11.1509,13.4024 h -62.9234 v -80.5853 h 62.9234 c 7.4342,0 11.1509,4.468 11.1509,13.4028 z m -96.2435,34.3448 h 92.3938 c 17.4339,0 26.1516,-9.9405 26.1516,-29.8216 V 114.861 c 0,-19.8811 -8.7177,-29.8216 -26.1516,-29.8216 h -92.3938 z m 155.1843,0 c 4.5131,0 7.6105,-1.9551 9.2926,-5.8637 l 48.0549,-93.151 48.0557,93.151 c 1.7697,3.9086 4.8671,5.8637 9.2926,5.8637 h 9.5581 c 8.0532,0 12.0801,-4.8025 12.0801,-14.4082 V 85.0394 h -19.7801 v 91.8105 l -45.002,-85.9468 c -1.8581,-3.9092 -4.6463,-5.8637 -8.3634,-5.8637 h -11.5494 c -3.6278,0 -6.4605,1.9545 -8.4952,5.8637 L 361.8051,176.682 V 85.0394 h -19.7802 v 108.0615 c 0,9.6057 3.9827,14.4082 11.9478,14.4082 z m 152.2639,0 h 91.5973 c 17.4342,0 26.1513,-9.9405 26.1513,-29.8216 v -16.4188 c 0,-19.0934 -12.9504,-29.0396 -28.8808,-29.8216 l 28.6739,-45.2348 v -1.1729 h -25.132 l -28.499,46.4077 H 537.9639 V 85.0394 h -22.1692 z m 95.845,-34.0101 c 0,9.0468 -3.7616,13.5706 -11.2833,13.5706 h -62.3925 v -37.6957 h 62.3925 c 7.5217,0 11.2833,4.5233 11.2833,13.57 z"
         style="fill:#161d38;fill-opacity:1;fill-rule:nonzero;stroke:none"
         id="path24" />
      <path
         d="m 223.9036,249.34 h -8.2551 c -1.0105,0 -1.9542,-0.26 -2.8315,-0.7796 -0.8776,-0.5198 -1.6484,-1.1899 -2.3131,-2.0106 -0.665,-0.8206 -1.19,-1.7234 -1.5755,-2.7082 -0.3852,-0.9847 -0.5783,-1.9287 -0.5783,-2.8312 v -11.6535 c 0,-1.0395 0.173,-2.1133 0.5185,-3.2211 0.3458,-1.108 0.8575,-2.1203 1.5355,-3.0364 0.6781,-0.9165 1.5089,-1.6756 2.4925,-2.2774 0.9837,-0.6018 2.1135,-0.9028 3.39,-0.9028 h 6.9389 c 1.5687,0 2.8783,0.301 3.9285,0.9028 1.05,0.6018 1.8942,1.3198 2.5322,2.1541 0.6381,0.8345 1.0965,1.7098 1.376,2.6263 0.2789,0.9164 0.4187,1.6891 0.4187,2.3181 v 9.2328 c 0,0.2735 -0.133,0.4101 -0.3989,0.4101 h -12.4027 c -0.2659,0 -0.3988,-0.1366 -0.3988,-0.4101 v -4.5139 c 0,-0.2736 0.1329,-0.4102 0.3988,-0.4102 h 6.5004 c 0.2659,0 0.3989,-0.1369 0.3989,-0.4105 v -3.816 c 0,-0.2463 -0.0599,-0.5266 -0.1798,-0.8413 -0.1193,-0.3143 -0.3053,-0.6086 -0.5581,-0.8821 -0.2526,-0.2736 -0.5715,-0.506 -0.957,-0.6976 -0.3858,-0.1914 -0.8308,-0.2872 -1.3362,-0.2872 h -4.8651 c -1.0372,0 -1.8879,0.4652 -2.5524,1.3952 -0.6647,0.9301 -0.9969,2.1473 -0.9969,3.6519 v 10.7096 c 0,0.2463 0.0995,0.5403 0.2991,0.8824 0.1992,0.3419 0.4385,0.6701 0.7177,0.9848 0.2789,0.3146 0.5783,0.5743 0.8972,0.7795 0.3191,0.2052 0.5981,0.3078 0.8376,0.3078 h 12.2031 c 0.2659,0 0.3992,0.1367 0.3992,0.4102 v 4.5136 c 0,0.2738 -0.1333,0.4105 -0.3992,0.4105 z m 19.7985,-8.0425 c -0.718,0 -1.396,-0.1437 -2.0341,-0.4309 -0.6381,-0.2871 -1.1965,-0.6772 -1.675,-1.1695 -0.4785,-0.4924 -0.8575,-1.0667 -1.1364,-1.7232 -0.2795,-0.6565 -0.4187,-1.3405 -0.4187,-2.0517 v -15.5926 c 0,-0.2735 0.1327,-0.4104 0.3986,-0.4104 h 4.4665 c 0.2659,0 0.3991,0.1369 0.3991,0.4104 v 14.1563 c 0,0.1641 0.0397,0.3489 0.1197,0.5541 0.0793,0.205 0.1924,0.3966 0.3387,0.5743 0.1463,0.1778 0.3124,0.3351 0.4986,0.472 0.186,0.1366 0.3986,0.2052 0.6381,0.2052 h 3.8285 c 0.2659,0 0.3988,0.1367 0.3988,0.4102 v 4.1854 c 0,0.2735 -0.1329,0.4104 -0.3988,0.4104 z m 31.9218,-6.1551 c 0,0.985 -0.1794,1.8535 -0.5383,2.6056 -0.3588,0.7523 -0.824,1.3952 -1.3957,1.9287 -0.5715,0.5334 -1.2229,0.9368 -1.954,1.2104 -0.7313,0.2735 -1.4558,0.4104 -2.1736,0.4104 h -8.0557 c -0.8507,0 -1.6552,-0.1505 -2.4129,-0.4513 -0.7577,-0.301 -1.4159,-0.7319 -1.974,-1.2926 -0.5585,-0.5609 -1.0035,-1.2379 -1.336,-2.0313 -0.3325,-0.7931 -0.4986,-1.6823 -0.4986,-2.6671 v -7.2218 c 0,-0.9576 0.0932,-1.8944 0.2792,-2.8108 0.1862,-0.9165 0.5184,-1.7371 0.9969,-2.4619 0.4785,-0.7249 1.1166,-1.313 1.9143,-1.7646 0.7979,-0.4513 1.8082,-0.6769 3.0311,-0.6769 h 7.0985 c 1.2231,0 2.2734,0.123 3.1507,0.3693 0.8773,0.2461 1.6018,0.6838 2.1733,1.313 0.5718,0.6293 0.9969,1.4772 1.2764,2.5441 0.279,1.067 0.4184,2.4208 0.4184,4.0624 z m -4.9053,-4.4725 v -3.2826 c 0,-0.7115 -0.3521,-1.2994 -1.0568,-1.7645 -0.7044,-0.4649 -1.5352,-0.6976 -2.4925,-0.6976 h -3.6686 c -0.3458,0 -0.718,0.0343 -1.1171,0.1026 -0.3986,0.0683 -0.7707,0.2052 -1.1166,0.4104 -0.3452,0.205 -0.6313,0.4856 -0.8572,0.8411 -0.2259,0.3557 -0.339,0.807 -0.339,1.3541 v 6.5653 c 0,0.383 0.093,0.7112 0.2792,0.9848 0.186,0.2735 0.4187,0.4923 0.6979,0.6565 0.2789,0.1641 0.5913,0.2803 0.9371,0.3489 0.3456,0.0683 0.6914,0.1026 1.037,0.1026 h 4.3469 c 0.3988,0 0.7977,-0.0411 1.1965,-0.1233 0.3985,-0.0819 0.7577,-0.212 1.0766,-0.3897 0.3192,-0.1778 0.5783,-0.3966 0.7778,-0.6565 0.1993,-0.26 0.2988,-0.5539 0.2988,-0.8822 z m 24.5843,10.2172 v -14.4026 c 0,-0.2463 -0.1128,-0.4788 -0.3387,-0.6976 -0.226,-0.2188 -0.5253,-0.4102 -0.8975,-0.5743 -0.3722,-0.1641 -0.7909,-0.2874 -1.2563,-0.3694 -0.4652,-0.0822 -0.9505,-0.1233 -1.4553,-0.1233 -0.5054,0 -0.9972,0.0411 -1.4757,0.1233 -0.4785,0.082 -0.8972,0.2053 -1.2563,0.3694 -0.3589,0.1641 -0.6514,0.3555 -0.8774,0.5743 -0.2259,0.2188 -0.339,0.4513 -0.339,0.6976 v 14.4026 c 0,0.2735 -0.1329,0.4104 -0.3988,0.4104 h -4.0677 c -0.2659,0 -0.3989,-0.1369 -0.3989,-0.4104 v -16.1672 c 0,-0.8753 0.2591,-1.6276 0.7776,-2.2566 0.5184,-0.6293 1.19,-1.1489 2.014,-1.5594 0.8243,-0.4101 1.7614,-0.7112 2.8117,-0.9025 1.0502,-0.1916 2.1203,-0.2874 3.2105,-0.2874 1.0633,0 2.12,0.0958 3.1703,0.2874 1.0502,0.1913 1.9938,0.4924 2.8315,0.9025 0.8373,0.4105 1.5154,0.9301 2.0338,1.5594 0.5185,0.629 0.7779,1.3813 0.7779,2.2566 v 16.1672 c 0,0.2735 -0.1333,0.4104 -0.3992,0.4104 h -4.0677 c -0.2659,0 -0.3988,-0.1369 -0.3988,-0.4104 z m 17.0067,-21.3784 c 0,0.2736 0.1333,0.4105 0.3992,0.4105 h 4.1873 c 1.3292,0 2.5455,0.2188 3.649,0.6565 1.1033,0.4377 2.0472,1.108 2.8316,2.0106 0.7843,0.9028 1.3955,2.0517 1.8345,3.4469 0.4386,1.395 0.658,3.0637 0.658,5.006 0,1.313 -0.133,2.5852 -0.3989,3.816 -0.2659,1.2311 -0.7112,2.3253 -1.3362,3.2828 -0.6245,0.9573 -1.4618,1.7232 -2.5121,2.2978 -1.0502,0.5746 -2.3598,0.8617 -3.9285,0.8617 h -9.8501 c -0.2659,0 -0.3989,-0.1369 -0.3989,-0.4104 v -28.272 c 0,-0.2735 0.133,-0.4101 0.3989,-0.4101 h 4.0677 c 0.2659,0 0.3985,0.1366 0.3985,0.4101 z m 0,16.3724 c 0,0.2735 0.1333,0.4104 0.3992,0.4104 h 5.2642 c 0.3985,0 0.7908,-0.1301 1.1764,-0.39 0.3855,-0.2597 0.731,-0.5811 1.0369,-0.9641 0.3055,-0.3829 0.5581,-0.8206 0.7577,-1.313 0.1995,-0.4927 0.299,-0.9575 0.299,-1.3952 v -3.1595 c 0,-0.4652 -0.0995,-0.9439 -0.299,-1.4363 -0.1996,-0.4924 -0.4522,-0.9369 -0.7577,-1.3334 -0.3059,-0.3969 -0.6514,-0.7251 -1.0369,-0.9851 -0.3856,-0.2596 -0.7779,-0.3897 -1.1764,-0.3897 h -5.2642 c -0.2659,0 -0.3992,0.1369 -0.3992,0.4104 z m 24.1458,-7.6731 h 14.7555 c 0.2659,0 0.3988,0.1366 0.3988,0.4101 v 4.2676 c 0,1.2858 -0.1791,2.4483 -0.5383,3.4877 -0.3588,1.0395 -0.9241,1.9219 -1.6948,2.6468 -0.771,0.7248 -1.7549,1.2858 -2.9512,1.6823 -1.1965,0.3966 -2.6189,0.595 -4.2672,0.595 -1.3292,0 -2.6521,-0.1709 -3.968,-0.5131 -1.3161,-0.3418 -2.4993,-0.9368 -3.5495,-1.7847 -1.0502,-0.8481 -1.9009,-1.9902 -2.5523,-3.4265 -0.6511,-1.436 -0.9771,-3.2482 -0.9771,-5.4368 0,-1.8054 0.1927,-3.3509 0.5782,-4.6367 0.3858,-1.2857 1.037,-2.3456 1.9542,-3.1801 0.9173,-0.8343 2.1272,-1.4429 3.629,-1.8258 1.5023,-0.383 3.3701,-0.5746 5.6032,-0.5746 h 6.7399 c 0.2659,0 0.3989,0.1369 0.3989,0.4104 v 4.1854 c 0,0.2735 -0.133,0.4102 -0.3989,0.4102 h -9.4915 c -0.5581,0 -1.0899,0.0754 -1.5953,0.2256 -0.5052,0.1505 -0.9372,0.3558 -1.296,0.6157 -0.3589,0.2599 -0.6449,0.5607 -0.8575,0.9025 -0.2126,0.3422 -0.3189,0.7183 -0.3189,1.1285 0,0.2736 0.1329,0.4105 0.3988,0.4105 z m 0,4.8007 c -0.2659,0 -0.3988,0.1369 -0.3988,0.4105 0,0.5196 0.1993,0.9915 0.5981,1.4156 0.3988,0.4241 0.8972,0.7795 1.4956,1.0667 0.5981,0.2874 1.2228,0.5131 1.8742,0.6772 0.6514,0.1641 1.243,0.246 1.7748,0.246 1.675,0 2.9775,-0.3075 3.9081,-0.9232 0.9306,-0.6154 1.3958,-1.4429 1.3958,-2.4823 0,-0.2736 -0.1329,-0.4105 -0.3985,-0.4105 z m 33.198,-4.3084 c 0,-0.7387 0.0666,-1.3609 0.1995,-1.8671 0.133,-0.506 0.2659,-0.9094 0.3989,-1.2104 0.5048,-1.2036 1.1565,-2.2363 1.9542,-3.098 0.7974,-0.8617 1.7013,-1.4839 2.7116,-1.8669 0.4521,-0.1916 0.9839,-0.3626 1.5951,-0.5131 0.6117,-0.1505 1.3161,-0.2256 2.114,-0.2256 h 10.2093 c 0.2656,0 0.3988,0.1369 0.3988,0.4104 v 4.5136 c 0,0.2736 -0.1332,0.4102 -0.3988,0.4102 h -10.3292 c -0.9303,0.0822 -1.6548,0.4037 -2.1733,0.9644 -0.5184,0.5607 -0.8175,1.3198 -0.8974,2.2773 v 10.3813 c 0,1.4225 0.2525,2.5784 0.7577,3.4674 0.5051,0.8892 1.2764,1.4431 2.313,1.6619 h 10.3292 c 0.2656,0 0.3988,0.1367 0.3988,0.4102 v 4.5136 c 0,0.2738 -0.1332,0.4105 -0.3988,0.4105 h -10.5684 c -1.3028,0 -2.5257,-0.2736 -3.6689,-0.8207 -1.1432,-0.547 -2.1268,-1.313 -2.9511,-2.2977 -0.2926,-0.3558 -0.5783,-0.7455 -0.8575,-1.1696 -0.279,-0.4241 -0.4984,-0.9369 -0.6579,-1.5386 -0.3192,-1.0395 -0.4788,-2.1476 -0.4788,-3.324 z m 46.7974,6.4421 c 0,0.985 -0.1794,1.8535 -0.5383,2.6056 -0.3588,0.7523 -0.824,1.3952 -1.3957,1.9287 -0.5715,0.5334 -1.2229,0.9368 -1.954,1.2104 -0.7313,0.2735 -1.4558,0.4104 -2.1736,0.4104 h -8.0558 c -0.8506,0 -1.6551,-0.1505 -2.4128,-0.4513 -0.7577,-0.301 -1.4159,-0.7319 -1.974,-1.2926 -0.5585,-0.5609 -1.0035,-1.2379 -1.336,-2.0313 -0.3322,-0.7931 -0.4986,-1.6823 -0.4986,-2.6671 v -7.2218 c 0,-0.9576 0.0932,-1.8944 0.2792,-2.8108 0.1862,-0.9165 0.5184,-1.7371 0.9969,-2.4619 0.4788,-0.7249 1.1166,-1.313 1.9143,-1.7646 0.7979,-0.4513 1.8082,-0.6769 3.031,-0.6769 h 7.0986 c 1.2231,0 2.2734,0.123 3.1507,0.3693 0.8773,0.2461 1.6018,0.6838 2.1733,1.313 0.5717,0.6293 0.9969,1.4772 1.2764,2.5441 0.279,1.067 0.4184,2.4208 0.4184,4.0624 z m -4.9053,-4.4725 v -3.2826 c 0,-0.7115 -0.3521,-1.2994 -1.0568,-1.7645 -0.7044,-0.4649 -1.5352,-0.6976 -2.4925,-0.6976 h -3.6686 c -0.3458,0 -0.718,0.0343 -1.1171,0.1026 -0.3986,0.0683 -0.7708,0.2052 -1.1166,0.4104 -0.3452,0.205 -0.6313,0.4856 -0.8572,0.8411 -0.2259,0.3557 -0.339,0.807 -0.339,1.3541 v 6.5653 c 0,0.383 0.093,0.7112 0.2792,0.9848 0.186,0.2735 0.4187,0.4923 0.6979,0.6565 0.2789,0.1641 0.5913,0.2803 0.9371,0.3489 0.3456,0.0683 0.6914,0.1026 1.037,0.1026 h 4.3469 c 0.3988,0 0.7976,-0.0411 1.1965,-0.1233 0.3985,-0.0819 0.7577,-0.212 1.0766,-0.3897 0.3192,-0.1778 0.5782,-0.3966 0.7778,-0.6565 0.1996,-0.26 0.2988,-0.5539 0.2988,-0.8822 z m 16.7678,5.047 c 0,0.2464 0.1264,0.4788 0.379,0.6977 0.2525,0.2188 0.5249,0.3282 0.8175,0.3282 h 3.8684 c 0.5584,0 1.0769,-0.0479 1.5554,-0.1437 0.4785,-0.0955 0.8974,-0.2668 1.2563,-0.5128 0.3586,-0.2463 0.6381,-0.5882 0.8373,-1.0259 0.1993,-0.4376 0.2991,-0.9983 0.2991,-1.6823 v -13.0485 c 0,-0.2735 0.1329,-0.4104 0.3988,-0.4104 h 4.0281 c 0.2925,0 0.4385,0.1369 0.4385,0.4104 v 13.9102 c 0,0.9026 -0.1729,1.7782 -0.5185,2.626 -0.3455,0.8482 -0.8308,1.6005 -1.4556,2.257 -0.6247,0.6565 -1.3493,1.1832 -2.1733,1.5797 -0.8243,0.3966 -1.7149,0.595 -2.6722,0.595 h -9.0128 c -0.8509,0 -1.5488,-0.2803 -2.0939,-0.8413 -0.5448,-0.5607 -0.8175,-1.1829 -0.8175,-1.8669 v -17.0289 c 0,-0.4376 0.0867,-0.8206 0.2593,-1.1488 0.1727,-0.3283 0.4454,-0.4924 0.8176,-0.4924 h 2.6719 c 0.7444,0 1.1166,0.4377 1.1166,1.313 z m 20.995,-11.2019 v -4.1854 c 0,-0.2735 0.1327,-0.4104 0.3989,-0.4104 h 13.0408 c 0.9039,0 1.6418,0.2324 2.2135,0.6976 0.5715,0.4649 1.0168,1.019 1.3357,1.6617 0.3192,0.6429 0.5383,1.2994 0.6582,1.9698 0.1197,0.6701 0.1795,1.2103 0.1795,1.6208 0,1.4224 -0.1131,2.6056 -0.3393,3.5493 -0.226,0.9436 -0.5712,1.6891 -1.0367,2.2362 -0.4651,0.5471 -1.07,0.9369 -1.8147,1.1696 -0.7444,0.2324 -1.635,0.3487 -2.6717,0.3487 h -5.8226 c -0.3988,0 -0.6979,0.1777 -0.8975,0.5334 -0.1992,0.3558 -0.2987,0.7112 -0.2987,1.067 0,0.383 0.0927,0.7316 0.2789,1.0463 0.1862,0.3146 0.4918,0.4719 0.9173,0.4719 h 10.4485 c 0.2662,0 0.3988,0.1367 0.3988,0.4102 v 4.1854 c 0,0.2735 -0.1326,0.4104 -0.3988,0.4104 h -8.6139 c -1.3561,0 -2.5195,-0.0822 -3.4898,-0.2463 -0.9703,-0.1641 -1.7676,-0.4785 -2.3927,-0.9437 -0.6247,-0.4651 -1.0899,-1.1216 -1.3958,-1.9695 -0.3058,-0.8481 -0.4583,-1.9559 -0.4583,-3.3239 0,-0.93 0.0927,-1.7847 0.2789,-2.5645 0.186,-0.7795 0.4785,-1.4499 0.8773,-2.0106 0.3989,-0.5607 0.9306,-0.9984 1.5954,-1.313 0.6644,-0.3147 1.4754,-0.472 2.4327,-0.472 h 6.2608 c 0.5321,0 0.8842,-0.1777 1.0571,-0.5335 0.1729,-0.3554 0.2591,-0.7112 0.2591,-1.0666 0,-0.1917 -0.0134,-0.4037 -0.0397,-0.6361 -0.0267,-0.2325 -0.0998,-0.4445 -0.2194,-0.6361 -0.1196,-0.1914 -0.2858,-0.3487 -0.4986,-0.4717 -0.2126,-0.1233 -0.5052,-0.1848 -0.8774,-0.1848 h -10.9669 c -0.2662,0 -0.3989,-0.1367 -0.3989,-0.4102 z m 31.7625,11.3661 c 0,0.2735 0.133,0.4104 0.3989,0.4104 h 3.27 c 0.2659,0 0.3991,0.1367 0.3991,0.4102 v 4.1854 c 0,0.2735 -0.1332,0.4104 -0.3991,0.4104 h -3.27 c -0.2659,0 -0.3989,0.1366 -0.3989,0.4102 v 5.1293 c 0,0.2735 -0.1329,0.4101 -0.3988,0.4101 h -4.0677 c -0.2659,0 -0.3989,-0.1366 -0.3989,-0.4101 v -5.1293 c 0,-0.2736 -0.1329,-0.4102 -0.3988,-0.4102 h -2.1135 c -0.2659,0 -0.3988,-0.1369 -0.3988,-0.4104 v -4.1854 c 0,-0.2735 0.1329,-0.4102 0.3988,-0.4102 h 2.1135 c 0.2659,0 0.3988,-0.1369 0.3988,-0.4104 v -12.8024 c 0,-0.8479 0.3326,-1.5866 0.997,-2.2159 0.6647,-0.629 1.5024,-0.9436 2.5126,-0.9436 h 5.0247 c 0.2659,0 0.3991,0.1369 0.3991,0.4104 v 4.1854 c 0,0.246 -0.1065,0.383 -0.3191,0.4102 h -3.35 c -0.2659,0 -0.3989,0.1369 -0.3989,0.4104 z m 15.9701,5.4164 c -0.718,0 -1.396,-0.1437 -2.0341,-0.4309 -0.6381,-0.2871 -1.1965,-0.6772 -1.675,-1.1695 -0.4785,-0.4924 -0.8575,-1.0667 -1.1364,-1.7232 -0.2795,-0.6565 -0.4187,-1.3405 -0.4187,-2.0517 v -15.5926 c 0,-0.2735 0.1327,-0.4104 0.3986,-0.4104 h 4.4665 c 0.2659,0 0.3991,0.1369 0.3991,0.4104 v 14.1563 c 0,0.1641 0.0397,0.3489 0.1197,0.5541 0.0793,0.205 0.1924,0.3966 0.3387,0.5743 0.1463,0.1778 0.3124,0.3351 0.4986,0.472 0.186,0.1366 0.3986,0.2052 0.6381,0.2052 h 3.8285 c 0.2656,0 0.3988,0.1367 0.3988,0.4102 v 4.1854 c 0,0.2735 -0.1332,0.4104 -0.3988,0.4104 z m 24.7434,-0.4104 v -14.4026 c 0,-0.2463 -0.1128,-0.4788 -0.3388,-0.6976 -0.2259,-0.2188 -0.5252,-0.4102 -0.8974,-0.5743 -0.3722,-0.1641 -0.7909,-0.2874 -1.2563,-0.3694 -0.4652,-0.0822 -0.9505,-0.1233 -1.4553,-0.1233 -0.5054,0 -0.9973,0.0411 -1.4757,0.1233 -0.4785,0.082 -0.8972,0.2053 -1.2564,0.3694 -0.3588,0.1641 -0.6514,0.3555 -0.8773,0.5743 -0.2259,0.2188 -0.339,0.4513 -0.339,0.6976 v 14.4026 c 0,0.2735 -0.133,0.4104 -0.3988,0.4104 h -4.0678 c -0.2658,0 -0.3988,-0.1369 -0.3988,-0.4104 v -16.1672 c 0,-0.8753 0.2591,-1.6276 0.7776,-2.2566 0.5187,-0.6293 1.1899,-1.1489 2.014,-1.5594 0.8243,-0.4101 1.7614,-0.7112 2.8117,-0.9025 1.0502,-0.1916 2.1203,-0.2874 3.2105,-0.2874 1.0632,0 2.1203,0.0958 3.1702,0.2874 1.0503,0.1913 1.9939,0.4924 2.8316,0.9025 0.8373,0.4105 1.5154,0.9301 2.0338,1.5594 0.5185,0.629 0.7779,1.3813 0.7779,2.2566 v 16.1672 c 0,0.2735 -0.1333,0.4104 -0.3989,0.4104 h -4.068 c -0.2656,0 -0.3988,-0.1369 -0.3988,-0.4104 z m 20.9551,-15.9619 c -1.5951,0 -2.7584,0.4308 -3.4894,1.2926 -0.7314,0.8617 -1.0968,1.9763 -1.0968,3.3443 v 1.7643 c 0,1.3952 0.3787,2.5716 1.1367,3.5288 0.7574,0.9576 1.9075,1.4363 3.4495,1.4363 h 7.5373 c 0.2659,0 0.3991,0.1367 0.3991,0.4102 v 4.1854 c 0,0.2735 -0.1332,0.4104 -0.3991,0.4104 h -6.7396 c -1.7547,0 -3.2704,-0.212 -4.5465,-0.6361 -1.2762,-0.424 -2.3196,-1.0258 -3.1303,-1.8054 -0.8113,-0.7795 -1.4094,-1.7234 -1.7946,-2.8312 -0.3858,-1.1081 -0.5783,-2.3596 -0.5783,-3.7545 v -3.4469 c 0,-1.0395 0.2126,-2.0858 0.6378,-3.1391 0.4255,-1.0531 1.0369,-2.0106 1.8346,-2.8724 0.7976,-0.8617 1.7679,-1.559 2.9112,-2.0925 1.1432,-0.5335 2.446,-0.8002 3.9084,-0.8002 h 7.4973 c 0.2659,0 0.3991,0.1369 0.3991,0.4104 v 4.1854 c 0,0.2735 -0.1332,0.4102 -0.3991,0.4102 z m 22.072,10.9559 c 0,0.2735 0.1326,0.4104 0.3985,0.4104 h 3.2704 c 0.2658,0 0.3988,0.1367 0.3988,0.4102 v 4.1854 c 0,0.2735 -0.133,0.4104 -0.3988,0.4104 h -3.2704 c -0.2659,0 -0.3985,0.1366 -0.3985,0.4102 v 5.1293 c 0,0.2735 -0.1333,0.4101 -0.3989,0.4101 h -4.068 c -0.2659,0 -0.3988,-0.1366 -0.3988,-0.4101 v -5.1293 c 0,-0.2736 -0.1327,-0.4102 -0.3986,-0.4102 h -2.1137 c -0.2659,0 -0.3989,-0.1369 -0.3989,-0.4104 v -4.1854 c 0,-0.2735 0.133,-0.4102 0.3989,-0.4102 h 2.1137 c 0.2659,0 0.3986,-0.1369 0.3986,-0.4104 v -12.8024 c 0,-0.8479 0.3325,-1.5866 0.9969,-2.2159 0.6651,-0.629 1.5024,-0.9436 2.5127,-0.9436 h 5.025 c 0.2658,0 0.3988,0.1369 0.3988,0.4104 v 4.1854 c 0,0.246 -0.1063,0.383 -0.3192,0.4102 h -3.35 c -0.2659,0 -0.3985,0.1369 -0.3985,0.4104 z m 10.8252,-15.5515 c 0,-0.2735 0.1329,-0.4104 0.3988,-0.4104 h 4.0677 c 0.2659,0 0.3989,0.1369 0.3989,0.4104 v 20.5575 c 0,0.2735 -0.133,0.4104 -0.3989,0.4104 h -4.0677 c -0.2659,0 -0.3988,-0.1369 -0.3988,-0.4104 z m 0,28.5999 v -4.1853 c 0,-0.2736 0.1329,-0.4102 0.3988,-0.4102 h 4.0677 c 0.2659,0 0.3989,0.1366 0.3989,0.4102 v 4.1853 c 0,0.2738 -0.133,0.4105 -0.3989,0.4105 h -4.0677 c -0.2659,0 -0.3988,-0.1367 -0.3988,-0.4105 z m 32.1613,-13.7871 c 0,0.985 -0.1794,1.8535 -0.5383,2.6056 -0.3591,0.7523 -0.824,1.3952 -1.3958,1.9287 -0.5717,0.5334 -1.2228,0.9368 -1.9542,1.2104 -0.731,0.2735 -1.4556,0.4104 -2.1733,0.4104 h -8.056 c -0.8507,0 -1.6552,-0.1505 -2.4126,-0.4513 -0.7577,-0.301 -1.4159,-0.7319 -1.9741,-1.2926 -0.5584,-0.5609 -1.0037,-1.2379 -1.3362,-2.0313 -0.3322,-0.7931 -0.4983,-1.6823 -0.4983,-2.6671 v -7.2218 c 0,-0.9576 0.0929,-1.8944 0.2792,-2.8108 0.1862,-0.9165 0.5184,-1.7371 0.9969,-2.4619 0.4785,-0.7249 1.1166,-1.313 1.9142,-1.7646 0.7977,-0.4513 1.808,-0.6769 3.0309,-0.6769 h 7.0985 c 1.2234,0 2.2736,0.123 3.1507,0.3693 0.8776,0.2461 1.6021,0.6838 2.1733,1.313 0.5718,0.6293 0.9972,1.4772 1.2764,2.5441 0.2793,1.067 0.4187,2.4208 0.4187,4.0624 z m -4.9053,-4.4725 v -3.2826 c 0,-0.7115 -0.3521,-1.2994 -1.0568,-1.7645 -0.7044,-0.4649 -1.5355,-0.6976 -2.4925,-0.6976 h -3.6689 c -0.3458,0 -0.718,0.0343 -1.1168,0.1026 -0.3986,0.0683 -0.7708,0.2052 -1.1166,0.4104 -0.3455,0.205 -0.6316,0.4856 -0.8575,0.8411 -0.2259,0.3557 -0.3387,0.807 -0.3387,1.3541 v 6.5653 c 0,0.383 0.0927,0.7112 0.2789,0.9848 0.186,0.2735 0.419,0.4923 0.6979,0.6565 0.2792,0.1641 0.5916,0.2803 0.9374,0.3489 0.3453,0.0683 0.6911,0.1026 1.0369,0.1026 h 4.347 c 0.3988,0 0.7974,-0.0411 1.1965,-0.1233 0.3985,-0.0819 0.7574,-0.212 1.0766,-0.3897 0.3189,-0.1778 0.5782,-0.3966 0.7775,-0.6565 0.1996,-0.26 0.2991,-0.5539 0.2991,-0.8822 z m 16.7677,5.047 c 0,0.2464 0.1265,0.4788 0.3788,0.6977 0.2525,0.2188 0.5252,0.3282 0.8178,0.3282 h 3.8681 c 0.5584,0 1.0769,-0.0479 1.5557,-0.1437 0.4784,-0.0955 0.8971,-0.2668 1.256,-0.5128 0.3589,-0.2463 0.6381,-0.5882 0.8373,-1.0259 0.1996,-0.4376 0.2994,-0.9983 0.2994,-1.6823 v -13.0485 c 0,-0.2735 0.1329,-0.4104 0.3988,-0.4104 H 633.1 c 0.2925,0 0.4385,0.1369 0.4385,0.4104 v 13.9102 c 0,0.9026 -0.1726,1.7782 -0.5185,2.626 -0.3455,0.8482 -0.8305,1.6005 -1.4553,2.257 -0.625,0.6565 -1.3496,1.1832 -2.1736,1.5797 -0.8243,0.3966 -1.7149,0.595 -2.6719,0.595 h -9.0131 c -0.8506,0 -1.5485,-0.2803 -2.0936,-0.8413 -0.5451,-0.5607 -0.8175,-1.1829 -0.8175,-1.8669 v -17.0289 c 0,-0.4376 0.0864,-0.8206 0.2593,-1.1488 0.1727,-0.3283 0.4451,-0.4924 0.8173,-0.4924 h 2.6722 c 0.7444,0 1.1165,0.4377 1.1165,1.313 z"
         style="fill:#161d38;fill-opacity:1;fill-rule:nonzero;stroke:none"
         id="path26" />
    </g>
    <path
       style="fill:#ffffff;stroke-width:0.948269"
       d="M 467.49641,320.32233 V 210.60486 l 3.55601,3.37336 c 1.9558,1.85534 20.09144,17.96337 40.30141,35.79562 l 36.74541,32.42227 v 17.42131 17.42131 l -5.45255,4.78373 -5.45254,4.78373 -0.25528,-20.24924 -0.25527,-20.24924 -28.66692,-25.32442 -28.66691,-25.32442 -0.24152,97.29046 -0.24152,97.29047 h -5.68516 -5.68516 z"
       id="path501"
       transform="matrix(0.75000002,0,0,-0.75000002,0,595.27561)" />
    <path
       style="fill:#ffffff;stroke-width:0.474134"
       d="m 536.72671,387.96038 0.007,-41.36821 41.52317,-37.45661 c 22.83774,-20.60114 41.93048,-37.74934 42.42832,-38.10711 0.88891,-0.63883 0.90445,0.0886 0.86605,40.53848 l -0.0391,41.18898 -5.76904,5.16199 -5.76904,5.16198 -0.23706,-33.25457 c -0.13039,-18.29002 -0.40239,-33.26039 -0.60445,-33.26751 -0.20206,-0.007 -13.91853,12.20428 -30.48105,27.13642 l -30.11368,27.14935 0.13646,39.24263 0.13646,39.24263 -6.04521,-1.2e-4 -6.04521,-1.1e-4 z"
       id="path503"
       transform="matrix(0.75000002,0,0,-0.75000002,0,595.27561)" />
    <path
       style="fill:#ffffff;stroke-width:0.474134"
       d="m 643.28256,299.58378 -0.1194,-129.2707 -22.42253,20.21981 c -12.3324,11.12089 -22.52036,20.2198 -22.63992,20.2198 -0.11955,0 -0.21737,-3.25956 -0.21737,-7.24347 v -7.24346 l 28.56659,-25.74622 28.56659,-25.74622 0.1127,3.94896 c 0.062,2.17193 0.16867,66.09021 0.23707,142.04061 l 0.12437,138.09165 -6.04436,-4e-5 -6.04435,-3e-5 z"
       id="path505"
       transform="matrix(0.75000002,0,0,-0.75000002,0,595.27561)" />
    <path
       style="fill:#ffffff;stroke-width:0.474134"
       d="m 573.1605,247.64019 c -0.0373,-25.63399 -0.19734,-60.35862 -0.3556,-77.16584 l -0.28774,-30.5586 -29.39633,26.50025 -29.39633,26.50025 0.18663,20.13742 0.18663,20.13741 -6.21033,-5.41105 -6.21033,-5.41105 0.0124,-16.83177 0.0124,-16.83176 41.33435,-37.14296 41.33435,-37.14296 0.29055,15.33278 c 0.1598,8.43303 0.31371,46.59009 0.34203,84.79346 l 0.0515,69.46067 -5.27826,4.74134 c -2.90305,2.60774 -5.56394,4.91197 -5.91311,5.12051 -0.52845,0.31561 -0.64621,-7.43168 -0.7027,-46.2281 z"
       id="path507"
       transform="matrix(0.75000002,0,0,-0.75000002,0,595.27561)" />
    <path
       style="fill:#ffffff;stroke-width:0.474134"
       d="m 456.22439,605.35095 0.12986,-74.79468 1.06439,-3.13091 c 1.2246,-3.60216 4.01261,-7.08436 6.81793,-8.51553 2.75554,-1.40577 8.72134,-2.02439 16.88568,-1.75093 6.62179,0.22179 7.44355,0.34891 9.84223,1.52247 1.43945,0.70426 3.12506,1.95734 3.74578,2.78461 0.62072,0.82728 15.7967,29.94793 33.72439,64.71256 17.9277,34.76463 32.75694,63.03489 32.95387,62.8228 0.19693,-0.2121 14.87275,-28.54921 32.61292,-62.97136 20.52849,-39.83245 32.90508,-63.34271 34.04335,-64.66792 2.82287,-3.28644 4.82821,-3.92583 13.1913,-4.20593 15.32164,-0.51316 20.81038,1.80761 23.8188,10.07116 0.82385,2.26296 0.87294,6.10366 0.99239,77.64953 l 0.12567,75.26882 h -12.80876 -12.80876 v -61.16332 c 0,-33.63983 -0.16252,-61.16333 -0.36115,-61.16333 -0.19863,0 -13.78145,25.65659 -30.18403,57.01465 -16.40258,31.35806 -30.58855,58.18307 -31.52438,59.61114 -1.89078,2.88532 -3.98058,4.49987 -6.81091,5.262 -1.14446,0.30817 -5.63079,0.44739 -11.42614,0.35459 -10.72512,-0.17174 -11.61432,-0.39612 -14.8719,-3.75263 -1.29042,-1.3296 -10.13881,-17.82707 -32.07754,-59.80731 -16.66258,-31.88418 -30.47767,-58.17393 -30.7002,-58.42166 -0.22362,-0.24895 -0.40461,26.95097 -0.40461,60.80772 v 61.25815 h -13.05002 -13.05002 z"
       id="path509"
       transform="matrix(0.75000002,0,0,-0.75000002,0,595.27561)" />
    <path
       style="fill:#ffffff;stroke-width:0.474134"
       d="m 687.96886,598.57686 v -81.56879 l 64.12666,0.16187 c 72.05187,0.18187 67.30468,-0.0558 75.26882,3.76858 7.24175,3.47751 12.65163,10.35641 15.10371,19.20502 1.73785,6.27124 2.05652,11.30278 1.8552,29.29174 -0.17575,15.70454 -0.27352,17.37201 -1.22312,20.86191 -2.07884,7.64001 -6.27569,14.31422 -11.94272,18.99241 -5.28707,4.36452 -14.24088,7.86866 -21.93274,8.58355 -2.19722,0.2042 -3.17482,0.48146 -3.02983,0.85929 0.11772,0.30679 8.76951,14.05173 19.22619,30.54431 10.45668,16.49259 19.01214,30.18778 19.01214,30.43377 0,0.27414 -6.46306,0.39902 -16.69771,0.32265 l -16.6977,-0.1246 -18.9809,-30.93104 -18.9809,-30.93105 -28.09246,-0.006 -28.09245,-0.006 v 31.05579 31.0558 h -14.4611 -14.46109 z m 119.56173,-5.10285 c 3.36826,-1.65924 5.83711,-4.63492 7.01826,-8.45905 1.27167,-4.11719 1.79969,-17.19633 1.02136,-25.29943 -0.64277,-6.69174 -2.2334,-10.45531 -5.4044,-12.7873 -4.00883,-2.94812 -2.45333,-2.85913 -49.97753,-2.85913 h -43.29723 v 25.37796 25.37797 l 44.21302,-0.13031 44.21302,-0.13032 z"
       id="path511"
       transform="matrix(0.75000002,0,0,-0.75000002,0,595.27561)" />
    <path
       style="fill:#ffffff;stroke-width:0.474134"
       d="m 277.84269,598.6074 v -81.56396 h 61.58723 c 39.21525,0 63.33157,0.17901 66.38921,0.49278 17.96387,1.84344 27.21848,11.86659 29.40619,31.8482 0.67379,6.15409 0.68564,91.90914 0.0136,98.45795 -1.76054,17.156 -9.12403,27.05158 -23.07376,31.00815 l -3.69848,1.049 -65.312,0.13592 -65.312,0.13592 z m 120.53475,52.6889 c 2.93438,-1.45849 5.20628,-4.03492 6.5945,-7.47844 l 1.12408,-2.7883 0.13671,-40.77555 c 0.11976,-35.71966 0.044,-41.19378 -0.61067,-44.14859 -1.41585,-6.3899 -4.98371,-10.02207 -10.84773,-11.04324 -2.00801,-0.34968 -16.76991,-0.51895 -45.25766,-0.51895 h -42.27765 v 54.06303 54.06304 l 44.45009,-0.13026 44.45009,-0.13026 z"
       id="path513"
       transform="matrix(0.75000002,0,0,-0.75000002,0,595.27561)" />
    <path
       style="fill:#ffffff;stroke-width:0.0592668"
       d="m 820.60848,500.30915 c -0.27959,-0.14994 -0.50807,-0.44781 -0.66728,-0.86992 l -0.13338,-0.35362 -0.0157,-11.94226 c -0.0111,-8.47372 0.003,-12.03339 0.0492,-12.25603 0.1914,-0.926 1.06447,-2.02659 1.95195,-2.46062 0.92629,-0.45302 0.42466,-0.42601 7.91207,-0.42601 6.11827,0 6.74702,0.009 7.27421,0.10369 2.75914,0.49579 5.29662,2.39915 6.61729,4.96362 0.39834,0.77349 0.65748,1.46825 0.88425,2.37067 l 0.15637,0.6223 0.0177,10.04049 0.0177,10.04048 -0.1302,0.13859 -0.13019,0.13858 h -2.9507 c -2.94721,0 -2.95084,-1.8e-4 -3.06996,-0.12801 -0.1183,-0.12698 -0.11941,-0.20353 -0.13733,-9.46787 l -0.0181,-9.33986 -0.13273,-0.49709 c -0.38997,-1.46053 -1.3455,-2.37304 -2.8569,-2.7283 -0.90936,-0.21374 -1.66358,-0.24973 -4.83024,-0.23047 -3.00857,0.0183 -3.02388,0.019 -3.29685,0.15351 -0.35289,0.17386 -0.68916,0.50204 -0.82828,0.80836 -0.10553,0.23236 -0.1099,0.63169 -0.11115,10.17094 -0.001,10.67683 0.009,10.2915 -0.30313,10.75359 -0.0806,0.11917 -0.27016,0.27489 -0.43582,0.35805 l -0.29316,0.14715 h -2.16734 c -1.9978,0 -2.18338,-0.009 -2.37237,-0.10996 z"
       id="path515"
       transform="matrix(0.75000002,0,0,-0.75000002,0,595.27561)" />
    <path
       style="fill:#ffffff;stroke-width:0.0592668"
       d="m 789.94326,500.32687 c -0.79482,-0.12546 -1.36504,-0.2987 -2.02097,-0.61399 -2.14471,-1.0309 -3.61853,-3.00858 -4.1996,-5.63532 -0.37195,-1.68141 -0.36394,-1.49433 -0.36394,-8.50478 0,-6.38395 3.4e-4,-6.40232 0.13055,-6.97468 0.39144,-1.72073 1.14468,-3.13503 2.26789,-4.25824 1.39825,-1.39825 3.12173,-2.15336 5.27457,-2.31097 1.00013,-0.0732 10.92719,-0.0713 11.82576,0.002 1.56624,0.12825 3.10113,0.69898 4.30551,1.60093 0.51624,0.38661 1.43499,1.35371 1.78695,1.881 0.63838,0.95641 1.0443,1.90354 1.26329,2.94767 0.10563,0.50364 0.11187,0.88718 0.11187,6.87494 0,5.74111 -0.0101,6.42292 -0.10637,7.20092 -0.34243,2.76643 -1.00672,4.48209 -2.23457,5.77115 -1.02403,1.07508 -2.20311,1.61907 -4.26731,1.96883 -0.56568,0.0958 -1.19664,0.10673 -6.93421,0.11949 -5.18331,0.0115 -6.40624,-8.5e-4 -6.83942,-0.0692 z m 10.01019,-6.55207 c 1.7093,-0.20947 3.12562,-1.03762 3.69112,-2.15827 0.24806,-0.49156 0.25736,-0.71933 0.23851,-5.83632 l -0.018,-4.88951 -0.15734,-0.33561 c -0.23407,-0.49928 -0.75524,-0.98089 -1.42428,-1.31615 -1.14134,-0.57194 -1.67692,-0.63001 -5.81113,-0.63001 -3.32725,0 -3.9214,0.0313 -4.63632,0.24395 -0.89941,0.26757 -1.61823,0.80449 -1.94783,1.45494 -0.27521,0.54309 -0.28422,0.74288 -0.26298,5.828 0.0181,4.33781 0.0294,4.80296 0.12386,5.12329 0.37163,1.25984 1.4726,2.14775 3.0109,2.42822 0.71339,0.13007 0.75054,0.13145 3.84494,0.14265 1.75515,0.006 3.01601,-0.0144 3.34857,-0.0552 z"
       id="path517"
       transform="matrix(0.75000002,0,0,-0.75000002,0,595.27561)" />
    <path
       style="fill:#ffffff;stroke-width:0.0592668"
       d="m 410.11791,510.61824 -0.13992,-0.1133 -0.0151,-19.08552 -0.0151,-19.08553 0.14334,-0.1666 0.14334,-0.1666 7.22083,8.1e-4 c 7.95638,9e-4 7.82541,-0.004 9.33161,0.37632 3.06286,0.77417 5.40169,3.02797 6.61992,6.37928 1.27972,3.52047 1.39971,9.33946 0.27276,13.22833 -0.34864,1.20308 -0.97263,2.62873 -1.56422,3.5738 -1.48755,2.37641 -3.74775,3.95336 -6.5303,4.55622 -1.27221,0.27564 -1.7589,0.30364 -5.2829,0.30399 -2.11932,2.4e-4 -3.4113,0.0227 -3.55228,0.0619 -0.12185,0.0338 -0.24853,0.11195 -0.28151,0.17357 -0.039,0.0728 -0.0601,1.75651 -0.0603,4.81284 -1.8e-4,2.94317 -0.0224,4.78036 -0.0595,4.91361 -0.0379,0.13632 -0.11331,0.23751 -0.20989,0.28151 -0.10767,0.0491 -0.96983,0.0687 -3.01586,0.0687 -2.73263,0 -2.87155,-0.005 -3.005,-0.11329 z m 14.29827,-16.83664 c 1.73574,-0.32023 3.66911,-2.81946 3.90365,-5.04616 0.0771,-0.73202 0.0762,-4.43964 -0.001,-5.11572 -0.10584,-0.92397 -0.55203,-2.03383 -1.16859,-2.90682 -0.60387,-0.85501 -1.56335,-1.66283 -2.31063,-1.94539 -0.33767,-0.12769 -0.37924,-0.12894 -4.27264,-0.12894 h -3.93164 l -0.11331,0.13991 c -0.11021,0.13607 -0.11332,0.34016 -0.11332,7.42706 0,5.04286 0.0195,7.32348 0.0631,7.40513 0.0347,0.0649 0.12141,0.14146 0.19262,0.17015 0.1824,0.0735 7.35396,0.0742 7.75198,7.8e-4 z"
       id="path519"
       transform="matrix(0.75000002,0,0,-0.75000002,0,595.27561)" />
    <path
       style="fill:#ffffff;stroke-width:0.0592668"
       d="m 454.57625,500.3785 c -0.78958,-0.0452 -2.29604,-0.21417 -3.14114,-0.35222 -5.4711,-0.89373 -8.46196,-3.48202 -9.44325,-8.1722 -0.37258,-1.78081 -0.47939,-3.12668 -0.4364,-5.49883 0.0389,-2.14764 0.15115,-3.11017 0.54269,-4.6548 0.55376,-2.18456 1.78871,-4.39048 3.29712,-5.88941 1.30406,-1.29587 3.00431,-2.32356 4.79524,-2.8984 1.8858,-0.60529 3.84315,-0.88824 6.13411,-0.88674 1.88555,0.001 3.21156,0.14723 4.6313,0.50994 2.11124,0.53937 3.71163,1.39908 5.00719,2.68982 1.24548,1.24083 1.96314,2.56401 2.4222,4.46592 0.34408,1.42551 0.36841,1.76821 0.39852,5.61237 0.0297,3.79306 0.021,3.92913 -0.25729,4.03495 -0.0924,0.0351 -3.94633,0.0566 -10.16377,0.0566 h -10.01492 l -0.14547,0.14547 c -0.12122,0.12121 -0.14548,0.20315 -0.14548,0.49132 0,0.81294 0.289,1.43171 1.00601,2.15399 0.76342,0.76903 1.57978,1.19322 2.87597,1.4944 0.52048,0.12094 0.70235,0.12473 7.50998,0.1567 6.59355,0.031 6.98238,0.0386 7.08238,0.13859 0.0988,0.0989 0.1058,0.30693 0.1058,3.14974 0,2.91012 -0.005,3.04938 -0.1129,3.16865 l -0.1129,0.12476 -5.75451,-0.011 c -3.16498,-0.006 -5.9012,-0.0194 -6.08048,-0.0297 z m 8.09261,-17.47003 c 0.12808,-0.12808 0.14537,-0.19717 0.1446,-0.57785 -0.004,-1.76445 -1.2247,-3.18187 -3.36429,-3.90509 -1.06498,-0.35999 -2.78249,-0.57379 -4.06467,-0.50599 -1.74548,0.0923 -4.10439,0.84474 -5.44809,1.73782 -0.53736,0.35715 -1.22256,1.00427 -1.46745,1.38589 -0.24238,0.37773 -0.41206,0.92879 -0.41206,1.3383 0,0.37022 0.07,0.53786 0.25576,0.61271 0.0719,0.029 3.26284,0.0538 7.1701,0.0559 l 7.04063,0.004 z"
       id="path521"
       transform="matrix(0.75000002,0,0,-0.75000002,0,595.27561)" />
    <path
       style="fill:#ffffff;stroke-width:0.0592668"
       d="m 386.59725,500.65364 c -3.69477,-0.31981 -6.43969,-1.3059 -8.17231,-2.93583 -0.80262,-0.75505 -1.24631,-1.44308 -1.52578,-2.36601 -0.10217,-0.33743 -0.10856,-0.93498 -0.12497,-11.69233 -0.0117,-7.69176 0.002,-11.37338 0.0437,-11.45071 0.1144,-0.21376 0.42295,-0.23705 3.14148,-0.23705 2.58377,0 3.01575,0.0269 3.12418,0.19415 0.0256,0.0395 0.0599,4.52579 0.0762,9.96945 l 0.0296,9.89755 0.16667,0.28354 c 0.46024,0.78298 1.84572,1.44244 3.52182,1.67631 0.94872,0.13237 2.86776,0.0885 3.70259,-0.0847 1.52135,-0.31553 2.72013,-0.97569 3.06485,-1.68779 l 0.12319,-0.25447 v -9.78715 c 0,-7.29422 0.0175,-9.82556 0.0687,-9.93793 0.044,-0.0966 0.14519,-0.17202 0.28151,-0.20989 0.29163,-0.081 5.41654,-0.0788 5.70912,0.002 0.12185,0.0338 0.24854,0.11195 0.28152,0.17358 0.0398,0.0744 0.0598,3.87764 0.0596,11.33218 -4.2e-4,10.87574 -0.004,11.23469 -0.11467,11.69427 -0.22998,0.95436 -0.61732,1.58828 -1.47136,2.40801 -1.61526,1.55037 -3.85266,2.44515 -7.24431,2.89715 -1.05744,0.14093 -3.70189,0.20518 -4.74134,0.11521 z"
       id="path523"
       transform="matrix(0.75000002,0,0,-0.75000002,0,595.27561)" />
    <path
       style="fill:#ffffff;stroke-width:0.0592668"
       d="m 318.08484,500.30058 c -0.11767,-0.11767 -0.11853,-0.19756 -0.11853,-10.99189 0,-10.46769 0.004,-10.89499 0.1134,-11.45331 0.50127,-2.5636 2.38319,-4.72489 4.80744,-5.52111 0.95769,-0.31454 1.00354,-0.31762 5.15211,-0.34621 2.13377,-0.0147 3.99457,-0.01 4.13511,0.0116 0.14479,0.0217 0.30636,0.0929 0.37282,0.16421 0.11367,0.12201 0.11728,0.21848 0.11728,3.13075 0,2.8697 -0.005,3.01116 -0.11324,3.14478 l -0.11324,0.13992 -2.89455,0.0296 c -3.34195,0.0342 -3.0973,-0.008 -3.76875,0.65767 -0.29395,0.29163 -0.45902,0.52036 -0.6223,0.86234 l -0.22223,0.46543 -0.0296,9.79193 c -0.0278,9.194 -0.0359,9.79928 -0.13277,9.91237 -0.10134,0.11834 -0.15939,0.12044 -3.33375,0.12044 -3.1516,0 -3.23352,-0.003 -3.34916,-0.11853 z"
       id="path525"
       transform="matrix(0.75000002,0,0,-0.75000002,0,595.27561)" />
    <path
       style="fill:#ffffff;stroke-width:0.0592668"
       d="m 347.04256,500.32687 c -1.21853,-0.19235 -2.31181,-0.64899 -3.24352,-1.35475 -1.91063,-1.44726 -2.9445,-3.59226 -3.27959,-6.80422 -0.13093,-1.255 -0.13319,-12.15757 -0.003,-13.0552 0.40266,-2.76999 2.03843,-5.10219 4.3815,-6.2469 0.99632,-0.48675 2.00038,-0.74668 3.23281,-0.83691 1.00014,-0.0732 10.9272,-0.0713 11.82577,0.002 1.56623,0.12825 3.10113,0.69898 4.30551,1.60093 0.51624,0.38661 1.43499,1.35371 1.78694,1.881 0.71334,1.0687 1.1495,2.16516 1.31555,3.30715 0.084,0.57746 0.0928,1.3918 0.0743,6.81568 -0.0186,5.43379 -0.0332,6.25417 -0.1245,6.95996 -0.35674,2.7592 -1.03543,4.48825 -2.25272,5.73904 -1.03089,1.05926 -2.20393,1.59572 -4.24572,1.94168 -0.56568,0.0958 -1.19664,0.10673 -6.93422,0.11949 -5.18331,0.0115 -6.40623,-8.5e-4 -6.83942,-0.0692 z m 10.57002,-6.62999 c 1.84143,-0.4305 3.08424,-1.43059 3.31995,-2.67155 0.0481,-0.25313 0.0624,-1.76469 0.0497,-5.24512 l -0.0179,-4.88951 -0.16244,-0.34676 c -0.33957,-0.72488 -1.33465,-1.42053 -2.42364,-1.69435 -0.89375,-0.22473 -1.47246,-0.25004 -5.14823,-0.22519 -2.94854,0.0199 -3.5895,0.0391 -3.91161,0.11723 -1.25195,0.30352 -2.08094,0.9164 -2.43842,1.80274 l -0.13969,0.34633 -0.0174,4.65245 c -0.0179,4.79571 0.002,5.33641 0.21799,5.95118 0.34838,0.9912 1.3291,1.8061 2.54308,2.11309 0.78744,0.19913 1.2886,0.22195 4.54611,0.20702 2.74283,-0.0126 3.1971,-0.0275 3.58243,-0.11756 z"
       id="path527"
       transform="matrix(0.75000002,0,0,-0.75000002,0,595.27561)" />
    <path
       style="fill:#ffffff;stroke-width:0.0592668"
       d="m 287.01342,500.35571 c -1.37373,-0.2054 -2.59787,-0.71082 -3.82211,-1.57804 -2.39637,-1.69754 -4.15201,-4.3894 -4.92902,-7.55751 -0.41718,-1.70101 -0.38996,-0.93658 -0.38996,-10.95176 v -9.03818 l 0.13874,-0.65194 c 0.59214,-2.78243 2.32944,-5.65659 4.42066,-7.31346 1.31427,-1.0413 2.3839,-1.57336 3.70378,-1.84233 0.57328,-0.11683 0.79509,-0.11946 10.07438,-0.11946 9.40917,0 9.48918,9.9e-4 9.60673,0.11854 0.11563,0.11563 0.11853,0.19755 0.11853,3.35246 0,1.99613 -0.0222,3.27543 -0.058,3.34234 -0.0319,0.0596 -0.14257,0.13788 -0.24592,0.17391 -0.13371,0.0466 -2.57567,0.0655 -8.46895,0.0655 -9.25384,0 -8.44094,-0.0397 -9.2006,0.449 -0.79639,0.51229 -1.86909,1.7781 -2.30655,2.72177 l -0.13738,0.29634 v 8.00101 c 0,7.51102 0.007,8.03913 0.1093,8.62332 0.28162,1.60357 0.85752,2.78822 1.82015,3.74419 0.37008,0.36751 0.56459,0.506 1.01268,0.72103 0.30504,0.14638 0.69594,0.29506 0.86868,0.3304 0.20689,0.0423 1.64367,0.0643 4.21031,0.0643 4.34404,0 4.21865,0.0102 5.07684,-0.41252 1.04391,-0.51418 1.79863,-1.41295 2.07389,-2.46975 0.1288,-0.49451 0.13349,-6.04325 0.005,-6.21867 -0.0817,-0.11174 -0.21728,-0.1159 -4.71009,-0.14468 l -4.626,-0.0296 -0.13497,-0.13499 -0.13496,-0.135 v -3.25638 -3.25638 l 0.13499,-0.135 0.13498,-0.13499 8.25127,-0.0176 c 4.53819,-0.01 8.36653,-0.001 8.50741,0.0191 0.14089,0.0202 0.30758,0.0881 0.37042,0.15092 0.11147,0.11146 0.11426,0.27492 0.11403,6.67805 -1.8e-4,5.62332 -0.0133,6.64435 -0.0914,7.12601 -0.46818,2.88693 -1.81224,5.34701 -3.84959,7.04602 -1.45122,1.21022 -2.91945,1.92475 -4.6699,2.27265 -0.65794,0.13077 -0.71971,0.13209 -6.65005,0.14226 -3.29227,0.006 -6.13967,-0.0127 -6.32754,-0.0408 z"
       id="path529"
       transform="matrix(0.75000002,0,0,-0.75000002,0,595.27561)" />
    <path
       style="fill:#ffffff;stroke-width:0.0592668"
       d="m 750.11008,500.32097 c -1.50225,-0.32039 -2.79201,-1.44017 -3.30011,-2.8652 l -0.13736,-0.38523 -0.0296,-9.08778 -0.0296,-9.08778 -0.16629,-0.14302 -0.16629,-0.14303 h -1.61996 c -1.5067,0 -1.62975,-0.008 -1.75988,-0.11329 l -0.13992,-0.1133 v -3.05583 -3.05583 l 0.1349,-0.135 c 0.13255,-0.13263 0.16445,-0.13551 1.8205,-0.16463 1.51499,-0.0266 1.69628,-0.0403 1.79126,-0.13542 0.0985,-0.0986 0.10769,-0.35936 0.13531,-3.84234 0.0286,-3.61227 0.0335,-3.73934 0.14468,-3.82063 0.0957,-0.0699 0.61032,-0.0841 3.05673,-0.0841 h 2.94168 l 0.12753,0.13576 c 0.12734,0.13554 0.12756,0.14148 0.14368,3.81651 0.0153,3.49188 0.0218,3.68701 0.12633,3.80247 0.10723,0.11846 0.1757,0.12219 2.5617,0.13955 l 2.45153,0.0178 0.13494,0.13495 0.13493,0.13496 0.0176,2.85802 c 0.01,1.5719 0.002,2.94618 -0.0181,3.05393 -0.0196,0.10776 -0.0875,0.24778 -0.15089,0.31116 -0.11028,0.11028 -0.2169,0.11522 -2.48311,0.11522 -1.60915,0 -2.41416,0.0211 -2.51231,0.0658 -0.0794,0.0362 -0.17403,0.13079 -0.21022,0.21022 -0.0934,0.20494 -0.0934,14.47457 0,14.67951 0.0362,0.0794 0.13079,0.17403 0.21022,0.21023 0.0981,0.0447 0.90141,0.0658 2.50574,0.0658 2.23656,0 2.36871,0.006 2.50123,0.11328 l 0.13992,0.11329 v 3.05125 c 0,2.91735 -0.005,3.05672 -0.1129,3.17602 -0.11267,0.12451 -0.12089,0.12476 -3.97088,0.11994 -3.1827,-0.004 -3.93059,-0.0203 -4.27284,-0.0933 z"
       id="path531"
       transform="matrix(0.75000002,0,0,-0.75000002,0,595.27561)" />
    <path
       style="fill:#ffffff;stroke-width:0.0592668"
       d="m 767.68268,500.30058 c -0.11786,-0.11786 -0.11853,-0.19756 -0.11853,-14.05013 0,-9.2824 0.02,-13.96898 0.06,-14.04363 0.11326,-0.21162 0.427,-0.23511 3.14045,-0.23511 2.71344,0 3.02719,0.0235 3.14044,0.23511 0.0399,0.0747 0.06,4.75759 0.06,14.03246 v 13.92041 l -0.12084,0.12971 -0.12084,0.12971 h -2.96103 c -2.88201,0 -2.9642,-0.003 -3.07957,-0.11853 z"
       id="path533"
       transform="matrix(0.75000002,0,0,-0.75000002,0,595.27561)" />
    <path
       style="fill:#ffffff;stroke-width:0.0592668"
       d="m 688.59116,500.64974 c -2.25478,-0.16945 -4.44251,-0.69686 -5.98783,-1.44354 -1.73699,-0.83929 -3.07787,-2.11674 -3.56283,-3.39429 -0.32428,-0.85424 -0.31296,-0.4096 -0.31519,-12.38425 l -0.002,-11.0944 0.14304,-0.16628 0.14305,-0.16629 h 2.93719 2.93719 l 0.13499,0.13498 0.13498,0.13499 0.0296,9.94545 0.0296,9.94545 0.16957,0.24468 c 0.45628,0.65836 1.55997,1.22446 2.9183,1.49683 0.90744,0.18196 2.73642,0.22613 3.71386,0.0897 1.34633,-0.18794 2.51383,-0.6433 3.15738,-1.23146 0.61873,-0.56549 0.55796,0.58685 0.55944,-10.60786 l 10e-4,-9.82017 0.14304,-0.16628 0.14305,-0.16629 h 2.93719 2.93719 l 0.13499,0.135 0.13498,0.13501 v 11.24421 c 0,12.28936 0.0228,11.42454 -0.32568,12.35591 -0.41142,1.09964 -1.6398,2.31839 -3.14143,3.1168 -2.47232,1.31454 -6.31643,1.94684 -10.10498,1.66212 z"
       id="path535"
       transform="matrix(0.75000002,0,0,-0.75000002,0,595.27561)" />
    <path
       style="fill:#ffffff;stroke-width:0.0592668"
       d="m 721.81326,500.32289 c -2.04369,-0.27733 -3.89585,-1.0497 -5.62711,-2.34657 -1.92013,-1.43835 -3.47091,-3.59829 -4.23256,-5.89516 -0.57637,-1.73809 -0.66276,-2.67482 -0.61392,-6.65655 0.0435,-3.54756 0.15313,-4.48397 0.72694,-6.21005 0.52387,-1.57585 1.1987,-2.67822 2.3313,-3.80834 0.87484,-0.87294 1.55429,-1.35001 2.73021,-1.91701 1.55315,-0.74891 3.1437,-1.16283 5.39327,-1.40353 0.70181,-0.0751 10.7351,-0.15358 11.17624,-0.0874 0.5326,0.0799 0.49932,-0.13909 0.49932,3.28517 0,2.88097 -0.005,3.0223 -0.11327,3.15595 l -0.11326,0.13992 -5.68007,0.0315 c -5.14328,0.0285 -5.7269,0.0415 -6.17576,0.13691 -1.73906,0.36973 -2.81183,1.15888 -3.70428,2.72493 -0.30901,0.54224 -0.64572,1.51904 -0.78025,2.26348 -0.12866,0.71197 -0.1844,3.38131 -0.094,4.50364 0.1481,1.8395 0.64267,3.03288 1.69608,4.0926 0.44935,0.45204 0.62212,0.5804 1.09643,0.81462 0.66697,0.32937 1.4463,0.53897 2.33652,0.62843 0.41714,0.0419 2.53135,0.0651 5.94419,0.0651 h 5.29677 l 0.14548,0.14547 0.14547,0.14547 v 3.01413 c 0,2.9514 -0.003,3.01682 -0.12084,3.14383 l -0.12085,0.12971 -5.76138,-0.006 c -4.61535,-0.005 -5.88456,-0.0228 -6.38062,-0.0901 z"
       id="path537"
       transform="matrix(0.75000002,0,0,-0.75000002,0,595.27561)" />
    <path
       style="fill:#ffffff;stroke-width:0.0592668"
       d="m 655.85056,500.26295 -0.12284,-0.15616 3.5e-4,-10.70448 c 3.9e-4,-11.74751 -0.0123,-11.30601 0.35591,-12.40499 0.84711,-2.52844 2.89988,-4.3759 5.4334,-4.88997 0.47152,-0.0957 0.91858,-0.10601 4.60204,-0.10632 l 4.07978,-3.4e-4 0.11334,0.13991 c 0.10833,0.13372 0.11335,0.27466 0.11335,3.18328 0,3.0379 -2.4e-4,3.04358 -0.12744,3.16209 -0.12333,0.1149 -0.2201,0.11927 -3.00779,0.13566 l -2.88035,0.0169 -0.27429,0.16124 c -0.55574,0.32671 -1.09644,0.97468 -1.30248,1.56088 -0.10848,0.30866 -0.11235,0.64831 -0.11267,9.9075 -2.3e-4,6.4442 -0.0205,9.66053 -0.0619,9.80944 -0.0338,0.12185 -0.11194,0.24854 -0.17357,0.28152 -0.0716,0.0383 -1.26724,0.06 -3.31204,0.06 h -3.20001 z"
       id="path539"
       transform="matrix(0.75000002,0,0,-0.75000002,0,595.27561)" />
    <path
       style="fill:#ffffff;stroke-width:0.0592668"
       d="m 638.48109,500.32701 c -1.54453,-0.3315 -2.81171,-1.42434 -3.3293,-2.87124 l -0.13781,-0.38523 -0.0296,-9.08778 -0.0296,-9.08778 -0.16629,-0.14302 -0.16629,-0.14303 h -1.61997 c -1.5067,0 -1.62975,-0.008 -1.75988,-0.11329 l -0.13992,-0.1133 v -3.05583 -3.05583 l 0.13491,-0.135 c 0.13254,-0.13263 0.16444,-0.13551 1.82049,-0.16463 1.51502,-0.0266 1.69628,-0.0403 1.79127,-0.13542 0.0985,-0.0986 0.10769,-0.35937 0.13531,-3.84234 0.0287,-3.61225 0.0335,-3.73933 0.14468,-3.82063 0.0957,-0.0699 0.61172,-0.0841 3.06763,-0.0841 2.8946,0 2.95462,0.002 3.05573,0.12041 0.0949,0.1108 0.1055,0.41583 0.13277,3.82063 0.0276,3.44889 0.0368,3.7074 0.13537,3.80601 0.0971,0.0971 0.30662,0.10822 2.56172,0.13543 l 2.45598,0.0296 0.13492,0.13499 0.13492,0.135 v 3.05583 3.05583 l -0.13991,0.1133 c -0.1326,0.10736 -0.26505,0.11329 -2.53035,0.11329 h -2.39044 l -0.16629,0.14304 -0.16628,0.14303 v 7.32294 7.32293 l 0.13492,0.135 0.13492,0.13499 2.45596,0.0296 c 2.25538,0.0272 2.4646,0.0383 2.56172,0.13546 0.0987,0.0988 0.10575,0.30751 0.10575,3.14974 0,2.91012 -0.005,3.04938 -0.1129,3.16865 -0.11266,0.1245 -0.12111,0.12475 -3.97087,0.12005 -3.06267,-0.004 -3.93739,-0.0218 -4.24321,-0.0874 z"
       id="path541"
       transform="matrix(0.75000002,0,0,-0.75000002,0,595.27561)" />
    <path
       style="fill:#ffffff;stroke-width:0.0592668"
       d="m 565.43478,500.28425 c -0.14999,-0.0855 -0.30705,-0.25202 -0.42757,-0.4533 -0.39883,-0.66606 -0.37761,0.10403 -0.35938,-13.0432 l 0.0165,-11.88299 0.13266,-0.35158 c 0.20558,-0.54484 0.48185,-0.96743 0.93414,-1.42888 0.47216,-0.48172 0.97625,-0.78601 1.62984,-0.98385 l 0.4445,-0.13455 6.13411,-0.0209 c 6.67372,-0.0228 7.5205,0.003 8.52288,0.2555 3.02826,0.76399 5.59779,3.19498 6.61538,6.25871 0.26892,0.80966 0.38436,1.39937 0.45033,2.30057 0.078,1.06613 0.074,18.99574 -0.004,19.27787 -0.0338,0.12185 -0.11195,0.24854 -0.17357,0.28152 -0.0712,0.0381 -1.17882,0.06 -3.04046,0.06 -2.90172,0 -2.92945,-0.001 -3.04132,-0.12474 -0.10976,-0.12126 -0.11374,-0.38619 -0.14289,-9.4975 l -0.03,-9.37276 -0.13334,-0.47414 c -0.21308,-0.75765 -0.45612,-1.19297 -0.92784,-1.66189 -0.61078,-0.60715 -1.25219,-0.91621 -2.34595,-1.13041 -0.42256,-0.0827 -1.04621,-0.1028 -3.86849,-0.12435 -3.82595,-0.0292 -3.71825,-0.0403 -4.25176,0.43933 -0.55735,0.50111 -0.49923,-0.6778 -0.5327,10.8043 l -0.0296,10.16426 -0.15235,0.29633 c -0.0924,0.17975 -0.25178,0.36629 -0.40507,0.47414 l -0.25271,0.1778 -2.26194,0.015 c -2.25902,0.0149 -2.26224,0.0148 -2.499,-0.12019 z"
       id="path543"
       transform="matrix(0.75000002,0,0,-0.75000002,0,595.27561)" />
    <path
       style="fill:#ffffff;stroke-width:0.0592668"
       d="m 599.24648,500.30058 c -0.11546,-0.11546 -0.11854,-0.19756 -0.11854,-3.16045 v -3.0419 l 0.13717,-0.12887 0.13717,-0.12886 h 7.527 c 5.18343,0 7.6359,-0.0201 7.87678,-0.0647 0.4581,-0.0847 0.7538,-0.24086 1.06784,-0.56399 0.41135,-0.42325 0.51671,-0.7794 0.52412,-1.77166 0.005,-0.7229 -0.0114,-0.88071 -0.13062,-1.22567 -0.19231,-0.55654 -0.40669,-0.82842 -0.7895,-1.00128 l -0.31829,-0.14372 -5.12658,-0.0341 c -5.63567,-0.0375 -5.39873,-0.0223 -6.48786,-0.41642 -0.7857,-0.2843 -1.35618,-0.65402 -1.9928,-1.29152 -0.83569,-0.83684 -1.36417,-1.81674 -1.70996,-3.17058 -0.59007,-2.31029 -0.53637,-5.73239 0.12101,-7.71116 0.75609,-2.2759 2.25391,-3.53299 4.83272,-4.056 1.74206,-0.35331 3.85673,-0.43043 11.1539,-0.40676 l 5.47251,0.0178 0.14458,0.1681 0.14458,0.16811 -0.0164,3.02275 -0.0164,3.02275 -0.13992,0.11327 c -0.13603,0.11012 -0.33958,0.11326 -7.32351,0.11326 -8.08497,0 -7.59427,-0.0266 -8.01936,0.43457 -0.73999,0.80281 -0.70766,2.54364 0.0622,3.34875 0.40282,0.42126 0.0294,0.39119 5.34523,0.43039 5.11157,0.0377 5.30891,0.0484 6.49424,0.35099 2.8378,0.72456 4.16765,2.66373 4.59198,6.69599 0.13592,1.29156 0.13862,3.27847 0.006,4.11904 -0.37158,2.34813 -1.14026,4.01767 -2.38658,5.18354 -0.67422,0.6307 -1.21788,0.92846 -2.06737,1.13231 -0.45696,0.10965 -0.80743,0.11379 -9.6753,0.11419 -9.12243,4.1e-4 -9.20218,-6e-4 -9.3197,-0.11812 z"
       id="path545"
       transform="matrix(0.75000002,0,0,-0.75000002,0,595.27561)" />
    <path
       style="fill:#ffffff;stroke-width:0.0592668"
       d="m 534.79563,500.32628 c -0.64646,-0.10198 -1.59126,-0.38922 -2.07459,-0.63072 -2.14777,-1.07318 -3.63198,-3.14707 -4.17414,-5.83256 -0.33917,-1.68002 -0.33167,-1.49382 -0.33167,-8.23095 0,-5.82762 0.007,-6.26067 0.11081,-6.81568 0.39568,-2.11623 1.55232,-4.03858 3.14887,-5.23345 0.54632,-0.40888 1.82092,-1.03763 2.4885,-1.22757 1.27673,-0.36326 1.08499,-0.35454 7.79428,-0.3546 5.53751,-6e-5 6.186,0.01 6.66752,0.10118 2.02044,0.38351 3.67426,1.30621 4.84346,2.70224 1.03367,1.23421 1.62365,2.49797 1.85924,3.98257 0.0766,0.48294 0.0861,1.46087 0.0667,6.87494 -0.0245,6.83551 -0.0245,6.83462 -0.3662,8.4868 -0.67495,3.26362 -2.29957,5.18109 -4.95883,5.8527 -1.5627,0.39466 -1.28043,0.38109 -8.23039,0.3957 -5.20118,0.0109 -6.40546,-0.002 -6.84353,-0.0706 z m 10.04394,-6.54694 c 1.79198,-0.23181 3.27582,-1.14582 3.74933,-2.30951 l 0.13264,-0.32597 v -5.15621 -5.15621 l -0.14477,-0.29634 c -0.23194,-0.47477 -0.79435,-0.9837 -1.43631,-1.29973 -1.2027,-0.59209 -1.69959,-0.64134 -6.15323,-0.60998 -3.7692,0.0265 -3.81169,0.0297 -4.6472,0.34227 -0.78374,0.29324 -1.52767,1.01376 -1.72187,1.66773 -0.13657,0.45986 -0.13681,10.04106 -2.4e-4,10.56527 0.37467,1.43844 1.68545,2.37748 3.5995,2.57867 0.6352,0.0668 6.10603,0.0668 6.62217,10e-6 z"
       id="path547"
       transform="matrix(0.75000002,0,0,-0.75000002,0,595.27561)" />
    <path
       style="fill:#ffffff;stroke-width:0.0592668"
       d="m 503.35282,500.37793 c -0.87218,-0.0934 -2.29679,-0.46421 -3.26415,-0.8496 -1.62305,-0.64662 -2.65561,-1.35461 -3.84552,-2.63672 -1.67695,-1.8069 -3.01822,-4.56923 -3.26276,-6.71967 -0.0449,-0.39477 -0.0584,-3.30952 -0.0442,-9.5183 0.0227,-9.88561 -0.002,-9.22213 0.40731,-10.87546 0.35564,-1.43589 0.63875,-2.1377 1.1954,-2.96334 1.40706,-2.08697 2.99028,-3.49989 4.97831,-4.44282 0.75044,-0.35594 1.55849,-0.64394 2.25198,-0.80264 1.14383,-0.26176 1.22626,-0.26412 9.27117,-0.26526 l 7.65793,-0.001 0.12084,0.12971 c 0.11854,0.12724 0.12084,0.19111 0.12084,3.35247 0,1.98884 -0.0222,3.26427 -0.058,3.33116 -0.0319,0.0596 -0.14257,0.13788 -0.24592,0.17391 -0.13307,0.0464 -2.22629,0.0655 -7.1744,0.0655 -6.92573,0 -6.98971,0.001 -7.35505,0.12366 -2.03902,0.68414 -3.1877,2.45264 -3.48049,5.35852 -0.0455,0.45125 -0.06,2.99628 -0.0471,8.26771 0.0184,7.53507 0.0199,7.62018 0.14292,8.03065 0.41677,1.39092 1.07033,2.24242 2.11287,2.75274 0.97911,0.47929 0.32414,0.44252 8.48937,0.47655 7.57244,0.0316 7.48625,0.0285 7.57918,0.27065 0.0201,0.0525 0.0366,1.54171 0.0366,3.30942 0,3.15256 -0.002,3.21649 -0.12084,3.34372 l -0.12084,0.12971 -7.56903,-0.009 c -4.16296,-0.005 -7.66236,-0.0195 -7.77645,-0.0317 z"
       id="path549"
       transform="matrix(0.75000002,0,0,-0.75000002,0,595.27561)" />
    <path
       style="fill:#ffffff;stroke-width:0.0419079"
       d="m 767.98407,467.89657 c -0.0461,-0.0102 -0.12683,-0.0278 -0.1794,-0.039 -0.0526,-0.0112 -0.13266,-0.0812 -0.17796,-0.15552 -0.0798,-0.13096 -0.0823,-0.22595 -0.0819,-3.11054 3.5e-4,-2.2947 0.0124,-2.99944 0.0528,-3.08024 0.0288,-0.0576 0.11809,-0.13774 0.19844,-0.17804 0.13476,-0.0676 0.36518,-0.0733 2.96855,-0.0733 3.08779,-7e-5 3.0268,-0.005 3.1541,0.24292 0.0476,0.0927 0.0603,0.63768 0.0698,3.00871 0.0126,3.13925 0.0129,3.13472 -0.21367,3.30289 -0.11709,0.0869 -0.14644,0.0879 -2.9126,0.0943 -1.53688,0.004 -2.83204,-0.002 -2.87814,-0.0121 z"
       id="path551"
       transform="matrix(0.75000002,0,0,-0.75000002,0,595.27561)" />
  </g>
</svg>
