<?xml version="1.0" encoding="UTF-8" standalone="no"?>
<!-- Created with Inkscape (http://www.inkscape.org/) -->

<svg
   version="1.1"
   id="svg2"
   width="1122.5197"
   height="793.70081"
   viewBox="0 0 1122.5197 793.70081"
   sodipodi:docname="logo_dmr.pdf"
   xmlns:inkscape="http://www.inkscape.org/namespaces/inkscape"
   xmlns:sodipodi="http://sodipodi.sourceforge.net/DTD/sodipodi-0.dtd"
   xmlns="http://www.w3.org/2000/svg"
   xmlns:svg="http://www.w3.org/2000/svg">
  <defs
     id="defs6" />
  <sodipodi:namedview
     id="namedview4"
     pagecolor="#ffffff"
     bordercolor="#000000"
     borderopacity="0.25"
     inkscape:showpageshadow="2"
     inkscape:pageopacity="0.0"
     inkscape:pagecheckerboard="0"
     inkscape:deskcolor="#d1d1d1"
     showgrid="false" />
  <g
     id="g10"
     inkscape:groupmode="layer"
     inkscape:label="Page 1"
     transform="matrix(1.3333333,0,0,-1.3333333,0,793.7008)">
    <g
       id="g12">
      <g
         id="g14">
        <path
           d="m 402.4962,272.9392 9.2902,0.0769 -0.0737,59.1154 45.2381,40.7763 0.0647,-50.6483 9.2803,8.3974 -0.0802,62.3506 -63.7951,-57.5073 z"
           style="fill:#161d38;fill-opacity:1;fill-rule:nonzero;stroke:none"
           id="path16" />
        <path
           d="m 402.4037,349.1614 9.2776,8.3997 -0.0309,26.1397 -61.5722,54.4484 0.2061,-165.5989 9.2902,0.0678 -0.1808,145.5763 42.9712,-38.0069 z"
           style="fill:#161d38;fill-opacity:1;fill-rule:nonzero;stroke:none"
           id="path18" />
        <path
           d="m 385.4608,450.4714 44.0586,39.6697 0.0714,-58.7287 v -0.0318 l 0.0715,-57.5543 9.2769,8.3338 -0.0553,45.6509 0.002,0.233 -0.015,11.734 v 0 l -0.0867,70.4582 -62.6182,-56.3964 0.0337,-25.5084 9.298,-8.1867 -0.0366,30.3267 z"
           style="fill:#161d38;fill-opacity:1;fill-rule:nonzero;stroke:none"
           id="path20" />
        <path
           d="m 448.151,448.1459 0.0124,-11.7363 34.1178,30.7613 0.239,-193.6231 9.2903,0.0655 -0.2642,213.6458 z"
           style="fill:#161d38;fill-opacity:1;fill-rule:nonzero;stroke:none"
           id="path22" />
      </g>
      <path
         d="m 304.59,173.1643 c 0,8.9348 -3.7167,13.4024 -11.1509,13.4024 h -62.9234 v -80.5853 h 62.9234 c 7.4342,0 11.1509,4.468 11.1509,13.4028 z m -96.2435,34.3448 h 92.3938 c 17.4339,0 26.1516,-9.9405 26.1516,-29.8216 V 114.861 c 0,-19.8811 -8.7177,-29.8216 -26.1516,-29.8216 h -92.3938 z m 155.1843,0 c 4.5131,0 7.6105,-1.9551 9.2926,-5.8637 l 48.0549,-93.151 48.0557,93.151 c 1.7697,3.9086 4.8671,5.8637 9.2926,5.8637 h 9.5581 c 8.0532,0 12.0801,-4.8025 12.0801,-14.4082 V 85.0394 h -19.7801 v 91.8105 l -45.002,-85.9468 c -1.8581,-3.9092 -4.6463,-5.8637 -8.3634,-5.8637 h -11.5494 c -3.6278,0 -6.4605,1.9545 -8.4952,5.8637 L 361.8051,176.682 V 85.0394 h -19.7802 v 108.0615 c 0,9.6057 3.9827,14.4082 11.9478,14.4082 z m 152.2639,0 h 91.5973 c 17.4342,0 26.1513,-9.9405 26.1513,-29.8216 v -16.4188 c 0,-19.0934 -12.9504,-29.0396 -28.8808,-29.8216 l 28.6739,-45.2348 v -1.1729 h -25.132 l -28.499,46.4077 H 537.9639 V 85.0394 h -22.1692 z m 95.845,-34.0101 c 0,9.0468 -3.7616,13.5706 -11.2833,13.5706 h -62.3925 v -37.6957 h 62.3925 c 7.5217,0 11.2833,4.5233 11.2833,13.57 z"
         style="fill:#161d38;fill-opacity:1;fill-rule:nonzero;stroke:none"
         id="path24" />
      <path
         d="m 223.9036,249.34 h -8.2551 c -1.0105,0 -1.9542,-0.26 -2.8315,-0.7796 -0.8776,-0.5198 -1.6484,-1.1899 -2.3131,-2.0106 -0.665,-0.8206 -1.19,-1.7234 -1.5755,-2.7082 -0.3852,-0.9847 -0.5783,-1.9287 -0.5783,-2.8312 v -11.6535 c 0,-1.0395 0.173,-2.1133 0.5185,-3.2211 0.3458,-1.108 0.8575,-2.1203 1.5355,-3.0364 0.6781,-0.9165 1.5089,-1.6756 2.4925,-2.2774 0.9837,-0.6018 2.1135,-0.9028 3.39,-0.9028 h 6.9389 c 1.5687,0 2.8783,0.301 3.9285,0.9028 1.05,0.6018 1.8942,1.3198 2.5322,2.1541 0.6381,0.8345 1.0965,1.7098 1.376,2.6263 0.2789,0.9164 0.4187,1.6891 0.4187,2.3181 v 9.2328 c 0,0.2735 -0.133,0.4101 -0.3989,0.4101 h -12.4027 c -0.2659,0 -0.3988,-0.1366 -0.3988,-0.4101 v -4.5139 c 0,-0.2736 0.1329,-0.4102 0.3988,-0.4102 h 6.5004 c 0.2659,0 0.3989,-0.1369 0.3989,-0.4105 v -3.816 c 0,-0.2463 -0.0599,-0.5266 -0.1798,-0.8413 -0.1193,-0.3143 -0.3053,-0.6086 -0.5581,-0.8821 -0.2526,-0.2736 -0.5715,-0.506 -0.957,-0.6976 -0.3858,-0.1914 -0.8308,-0.2872 -1.3362,-0.2872 h -4.8651 c -1.0372,0 -1.8879,0.4652 -2.5524,1.3952 -0.6647,0.9301 -0.9969,2.1473 -0.9969,3.6519 v 10.7096 c 0,0.2463 0.0995,0.5403 0.2991,0.8824 0.1992,0.3419 0.4385,0.6701 0.7177,0.9848 0.2789,0.3146 0.5783,0.5743 0.8972,0.7795 0.3191,0.2052 0.5981,0.3078 0.8376,0.3078 h 12.2031 c 0.2659,0 0.3992,0.1367 0.3992,0.4102 v 4.5136 c 0,0.2738 -0.1333,0.4105 -0.3992,0.4105 z m 19.7985,-8.0425 c -0.718,0 -1.396,-0.1437 -2.0341,-0.4309 -0.6381,-0.2871 -1.1965,-0.6772 -1.675,-1.1695 -0.4785,-0.4924 -0.8575,-1.0667 -1.1364,-1.7232 -0.2795,-0.6565 -0.4187,-1.3405 -0.4187,-2.0517 v -15.5926 c 0,-0.2735 0.1327,-0.4104 0.3986,-0.4104 h 4.4665 c 0.2659,0 0.3991,0.1369 0.3991,0.4104 v 14.1563 c 0,0.1641 0.0397,0.3489 0.1197,0.5541 0.0793,0.205 0.1924,0.3966 0.3387,0.5743 0.1463,0.1778 0.3124,0.3351 0.4986,0.472 0.186,0.1366 0.3986,0.2052 0.6381,0.2052 h 3.8285 c 0.2659,0 0.3988,0.1367 0.3988,0.4102 v 4.1854 c 0,0.2735 -0.1329,0.4104 -0.3988,0.4104 z m 31.9218,-6.1551 c 0,0.985 -0.1794,1.8535 -0.5383,2.6056 -0.3588,0.7523 -0.824,1.3952 -1.3957,1.9287 -0.5715,0.5334 -1.2229,0.9368 -1.954,1.2104 -0.7313,0.2735 -1.4558,0.4104 -2.1736,0.4104 h -8.0557 c -0.8507,0 -1.6552,-0.1505 -2.4129,-0.4513 -0.7577,-0.301 -1.4159,-0.7319 -1.974,-1.2926 -0.5585,-0.5609 -1.0035,-1.2379 -1.336,-2.0313 -0.3325,-0.7931 -0.4986,-1.6823 -0.4986,-2.6671 v -7.2218 c 0,-0.9576 0.0932,-1.8944 0.2792,-2.8108 0.1862,-0.9165 0.5184,-1.7371 0.9969,-2.4619 0.4785,-0.7249 1.1166,-1.313 1.9143,-1.7646 0.7979,-0.4513 1.8082,-0.6769 3.0311,-0.6769 h 7.0985 c 1.2231,0 2.2734,0.123 3.1507,0.3693 0.8773,0.2461 1.6018,0.6838 2.1733,1.313 0.5718,0.6293 0.9969,1.4772 1.2764,2.5441 0.279,1.067 0.4184,2.4208 0.4184,4.0624 z m -4.9053,-4.4725 v -3.2826 c 0,-0.7115 -0.3521,-1.2994 -1.0568,-1.7645 -0.7044,-0.4649 -1.5352,-0.6976 -2.4925,-0.6976 h -3.6686 c -0.3458,0 -0.718,0.0343 -1.1171,0.1026 -0.3986,0.0683 -0.7707,0.2052 -1.1166,0.4104 -0.3452,0.205 -0.6313,0.4856 -0.8572,0.8411 -0.2259,0.3557 -0.339,0.807 -0.339,1.3541 v 6.5653 c 0,0.383 0.093,0.7112 0.2792,0.9848 0.186,0.2735 0.4187,0.4923 0.6979,0.6565 0.2789,0.1641 0.5913,0.2803 0.9371,0.3489 0.3456,0.0683 0.6914,0.1026 1.037,0.1026 h 4.3469 c 0.3988,0 0.7977,-0.0411 1.1965,-0.1233 0.3985,-0.0819 0.7577,-0.212 1.0766,-0.3897 0.3192,-0.1778 0.5783,-0.3966 0.7778,-0.6565 0.1993,-0.26 0.2988,-0.5539 0.2988,-0.8822 z m 24.5843,10.2172 v -14.4026 c 0,-0.2463 -0.1128,-0.4788 -0.3387,-0.6976 -0.226,-0.2188 -0.5253,-0.4102 -0.8975,-0.5743 -0.3722,-0.1641 -0.7909,-0.2874 -1.2563,-0.3694 -0.4652,-0.0822 -0.9505,-0.1233 -1.4553,-0.1233 -0.5054,0 -0.9972,0.0411 -1.4757,0.1233 -0.4785,0.082 -0.8972,0.2053 -1.2563,0.3694 -0.3589,0.1641 -0.6514,0.3555 -0.8774,0.5743 -0.2259,0.2188 -0.339,0.4513 -0.339,0.6976 v 14.4026 c 0,0.2735 -0.1329,0.4104 -0.3988,0.4104 h -4.0677 c -0.2659,0 -0.3989,-0.1369 -0.3989,-0.4104 v -16.1672 c 0,-0.8753 0.2591,-1.6276 0.7776,-2.2566 0.5184,-0.6293 1.19,-1.1489 2.014,-1.5594 0.8243,-0.4101 1.7614,-0.7112 2.8117,-0.9025 1.0502,-0.1916 2.1203,-0.2874 3.2105,-0.2874 1.0633,0 2.12,0.0958 3.1703,0.2874 1.0502,0.1913 1.9938,0.4924 2.8315,0.9025 0.8373,0.4105 1.5154,0.9301 2.0338,1.5594 0.5185,0.629 0.7779,1.3813 0.7779,2.2566 v 16.1672 c 0,0.2735 -0.1333,0.4104 -0.3992,0.4104 h -4.0677 c -0.2659,0 -0.3988,-0.1369 -0.3988,-0.4104 z m 17.0067,-21.3784 c 0,0.2736 0.1333,0.4105 0.3992,0.4105 h 4.1873 c 1.3292,0 2.5455,0.2188 3.649,0.6565 1.1033,0.4377 2.0472,1.108 2.8316,2.0106 0.7843,0.9028 1.3955,2.0517 1.8345,3.4469 0.4386,1.395 0.658,3.0637 0.658,5.006 0,1.313 -0.133,2.5852 -0.3989,3.816 -0.2659,1.2311 -0.7112,2.3253 -1.3362,3.2828 -0.6245,0.9573 -1.4618,1.7232 -2.5121,2.2978 -1.0502,0.5746 -2.3598,0.8617 -3.9285,0.8617 h -9.8501 c -0.2659,0 -0.3989,-0.1369 -0.3989,-0.4104 v -28.272 c 0,-0.2735 0.133,-0.4101 0.3989,-0.4101 h 4.0677 c 0.2659,0 0.3985,0.1366 0.3985,0.4101 z m 0,16.3724 c 0,0.2735 0.1333,0.4104 0.3992,0.4104 h 5.2642 c 0.3985,0 0.7908,-0.1301 1.1764,-0.39 0.3855,-0.2597 0.731,-0.5811 1.0369,-0.9641 0.3055,-0.3829 0.5581,-0.8206 0.7577,-1.313 0.1995,-0.4927 0.299,-0.9575 0.299,-1.3952 v -3.1595 c 0,-0.4652 -0.0995,-0.9439 -0.299,-1.4363 -0.1996,-0.4924 -0.4522,-0.9369 -0.7577,-1.3334 -0.3059,-0.3969 -0.6514,-0.7251 -1.0369,-0.9851 -0.3856,-0.2596 -0.7779,-0.3897 -1.1764,-0.3897 h -5.2642 c -0.2659,0 -0.3992,0.1369 -0.3992,0.4104 z m 24.1458,-7.6731 h 14.7555 c 0.2659,0 0.3988,0.1366 0.3988,0.4101 v 4.2676 c 0,1.2858 -0.1791,2.4483 -0.5383,3.4877 -0.3588,1.0395 -0.9241,1.9219 -1.6948,2.6468 -0.771,0.7248 -1.7549,1.2858 -2.9512,1.6823 -1.1965,0.3966 -2.6189,0.595 -4.2672,0.595 -1.3292,0 -2.6521,-0.1709 -3.968,-0.5131 -1.3161,-0.3418 -2.4993,-0.9368 -3.5495,-1.7847 -1.0502,-0.8481 -1.9009,-1.9902 -2.5523,-3.4265 -0.6511,-1.436 -0.9771,-3.2482 -0.9771,-5.4368 0,-1.8054 0.1927,-3.3509 0.5782,-4.6367 0.3858,-1.2857 1.037,-2.3456 1.9542,-3.1801 0.9173,-0.8343 2.1272,-1.4429 3.629,-1.8258 1.5023,-0.383 3.3701,-0.5746 5.6032,-0.5746 h 6.7399 c 0.2659,0 0.3989,0.1369 0.3989,0.4104 v 4.1854 c 0,0.2735 -0.133,0.4102 -0.3989,0.4102 h -9.4915 c -0.5581,0 -1.0899,0.0754 -1.5953,0.2256 -0.5052,0.1505 -0.9372,0.3558 -1.296,0.6157 -0.3589,0.2599 -0.6449,0.5607 -0.8575,0.9025 -0.2126,0.3422 -0.3189,0.7183 -0.3189,1.1285 0,0.2736 0.1329,0.4105 0.3988,0.4105 z m 0,4.8007 c -0.2659,0 -0.3988,0.1369 -0.3988,0.4105 0,0.5196 0.1993,0.9915 0.5981,1.4156 0.3988,0.4241 0.8972,0.7795 1.4956,1.0667 0.5981,0.2874 1.2228,0.5131 1.8742,0.6772 0.6514,0.1641 1.243,0.246 1.7748,0.246 1.675,0 2.9775,-0.3075 3.9081,-0.9232 0.9306,-0.6154 1.3958,-1.4429 1.3958,-2.4823 0,-0.2736 -0.1329,-0.4105 -0.3985,-0.4105 z m 33.198,-4.3084 c 0,-0.7387 0.0666,-1.3609 0.1995,-1.8671 0.133,-0.506 0.2659,-0.9094 0.3989,-1.2104 0.5048,-1.2036 1.1565,-2.2363 1.9542,-3.098 0.7974,-0.8617 1.7013,-1.4839 2.7116,-1.8669 0.4521,-0.1916 0.9839,-0.3626 1.5951,-0.5131 0.6117,-0.1505 1.3161,-0.2256 2.114,-0.2256 h 10.2093 c 0.2656,0 0.3988,0.1369 0.3988,0.4104 v 4.5136 c 0,0.2736 -0.1332,0.4102 -0.3988,0.4102 h -10.3292 c -0.9303,0.0822 -1.6548,0.4037 -2.1733,0.9644 -0.5184,0.5607 -0.8175,1.3198 -0.8974,2.2773 v 10.3813 c 0,1.4225 0.2525,2.5784 0.7577,3.4674 0.5051,0.8892 1.2764,1.4431 2.313,1.6619 h 10.3292 c 0.2656,0 0.3988,0.1367 0.3988,0.4102 v 4.5136 c 0,0.2738 -0.1332,0.4105 -0.3988,0.4105 h -10.5684 c -1.3028,0 -2.5257,-0.2736 -3.6689,-0.8207 -1.1432,-0.547 -2.1268,-1.313 -2.9511,-2.2977 -0.2926,-0.3558 -0.5783,-0.7455 -0.8575,-1.1696 -0.279,-0.4241 -0.4984,-0.9369 -0.6579,-1.5386 -0.3192,-1.0395 -0.4788,-2.1476 -0.4788,-3.324 z m 46.7974,6.4421 c 0,0.985 -0.1794,1.8535 -0.5383,2.6056 -0.3588,0.7523 -0.824,1.3952 -1.3957,1.9287 -0.5715,0.5334 -1.2229,0.9368 -1.954,1.2104 -0.7313,0.2735 -1.4558,0.4104 -2.1736,0.4104 h -8.0558 c -0.8506,0 -1.6551,-0.1505 -2.4128,-0.4513 -0.7577,-0.301 -1.4159,-0.7319 -1.974,-1.2926 -0.5585,-0.5609 -1.0035,-1.2379 -1.336,-2.0313 -0.3322,-0.7931 -0.4986,-1.6823 -0.4986,-2.6671 v -7.2218 c 0,-0.9576 0.0932,-1.8944 0.2792,-2.8108 0.1862,-0.9165 0.5184,-1.7371 0.9969,-2.4619 0.4788,-0.7249 1.1166,-1.313 1.9143,-1.7646 0.7979,-0.4513 1.8082,-0.6769 3.031,-0.6769 h 7.0986 c 1.2231,0 2.2734,0.123 3.1507,0.3693 0.8773,0.2461 1.6018,0.6838 2.1733,1.313 0.5717,0.6293 0.9969,1.4772 1.2764,2.5441 0.279,1.067 0.4184,2.4208 0.4184,4.0624 z m -4.9053,-4.4725 v -3.2826 c 0,-0.7115 -0.3521,-1.2994 -1.0568,-1.7645 -0.7044,-0.4649 -1.5352,-0.6976 -2.4925,-0.6976 h -3.6686 c -0.3458,0 -0.718,0.0343 -1.1171,0.1026 -0.3986,0.0683 -0.7708,0.2052 -1.1166,0.4104 -0.3452,0.205 -0.6313,0.4856 -0.8572,0.8411 -0.2259,0.3557 -0.339,0.807 -0.339,1.3541 v 6.5653 c 0,0.383 0.093,0.7112 0.2792,0.9848 0.186,0.2735 0.4187,0.4923 0.6979,0.6565 0.2789,0.1641 0.5913,0.2803 0.9371,0.3489 0.3456,0.0683 0.6914,0.1026 1.037,0.1026 h 4.3469 c 0.3988,0 0.7976,-0.0411 1.1965,-0.1233 0.3985,-0.0819 0.7577,-0.212 1.0766,-0.3897 0.3192,-0.1778 0.5782,-0.3966 0.7778,-0.6565 0.1996,-0.26 0.2988,-0.5539 0.2988,-0.8822 z m 16.7678,5.047 c 0,0.2464 0.1264,0.4788 0.379,0.6977 0.2525,0.2188 0.5249,0.3282 0.8175,0.3282 h 3.8684 c 0.5584,0 1.0769,-0.0479 1.5554,-0.1437 0.4785,-0.0955 0.8974,-0.2668 1.2563,-0.5128 0.3586,-0.2463 0.6381,-0.5882 0.8373,-1.0259 0.1993,-0.4376 0.2991,-0.9983 0.2991,-1.6823 v -13.0485 c 0,-0.2735 0.1329,-0.4104 0.3988,-0.4104 h 4.0281 c 0.2925,0 0.4385,0.1369 0.4385,0.4104 v 13.9102 c 0,0.9026 -0.1729,1.7782 -0.5185,2.626 -0.3455,0.8482 -0.8308,1.6005 -1.4556,2.257 -0.6247,0.6565 -1.3493,1.1832 -2.1733,1.5797 -0.8243,0.3966 -1.7149,0.595 -2.6722,0.595 h -9.0128 c -0.8509,0 -1.5488,-0.2803 -2.0939,-0.8413 -0.5448,-0.5607 -0.8175,-1.1829 -0.8175,-1.8669 v -17.0289 c 0,-0.4376 0.0867,-0.8206 0.2593,-1.1488 0.1727,-0.3283 0.4454,-0.4924 0.8176,-0.4924 h 2.6719 c 0.7444,0 1.1166,0.4377 1.1166,1.313 z m 20.995,-11.2019 v -4.1854 c 0,-0.2735 0.1327,-0.4104 0.3989,-0.4104 h 13.0408 c 0.9039,0 1.6418,0.2324 2.2135,0.6976 0.5715,0.4649 1.0168,1.019 1.3357,1.6617 0.3192,0.6429 0.5383,1.2994 0.6582,1.9698 0.1197,0.6701 0.1795,1.2103 0.1795,1.6208 0,1.4224 -0.1131,2.6056 -0.3393,3.5493 -0.226,0.9436 -0.5712,1.6891 -1.0367,2.2362 -0.4651,0.5471 -1.07,0.9369 -1.8147,1.1696 -0.7444,0.2324 -1.635,0.3487 -2.6717,0.3487 h -5.8226 c -0.3988,0 -0.6979,0.1777 -0.8975,0.5334 -0.1992,0.3558 -0.2987,0.7112 -0.2987,1.067 0,0.383 0.0927,0.7316 0.2789,1.0463 0.1862,0.3146 0.4918,0.4719 0.9173,0.4719 h 10.4485 c 0.2662,0 0.3988,0.1367 0.3988,0.4102 v 4.1854 c 0,0.2735 -0.1326,0.4104 -0.3988,0.4104 h -8.6139 c -1.3561,0 -2.5195,-0.0822 -3.4898,-0.2463 -0.9703,-0.1641 -1.7676,-0.4785 -2.3927,-0.9437 -0.6247,-0.4651 -1.0899,-1.1216 -1.3958,-1.9695 -0.3058,-0.8481 -0.4583,-1.9559 -0.4583,-3.3239 0,-0.93 0.0927,-1.7847 0.2789,-2.5645 0.186,-0.7795 0.4785,-1.4499 0.8773,-2.0106 0.3989,-0.5607 0.9306,-0.9984 1.5954,-1.313 0.6644,-0.3147 1.4754,-0.472 2.4327,-0.472 h 6.2608 c 0.5321,0 0.8842,-0.1777 1.0571,-0.5335 0.1729,-0.3554 0.2591,-0.7112 0.2591,-1.0666 0,-0.1917 -0.0134,-0.4037 -0.0397,-0.6361 -0.0267,-0.2325 -0.0998,-0.4445 -0.2194,-0.6361 -0.1196,-0.1914 -0.2858,-0.3487 -0.4986,-0.4717 -0.2126,-0.1233 -0.5052,-0.1848 -0.8774,-0.1848 h -10.9669 c -0.2662,0 -0.3989,-0.1367 -0.3989,-0.4102 z m 31.7625,11.3661 c 0,0.2735 0.133,0.4104 0.3989,0.4104 h 3.27 c 0.2659,0 0.3991,0.1367 0.3991,0.4102 v 4.1854 c 0,0.2735 -0.1332,0.4104 -0.3991,0.4104 h -3.27 c -0.2659,0 -0.3989,0.1366 -0.3989,0.4102 v 5.1293 c 0,0.2735 -0.1329,0.4101 -0.3988,0.4101 h -4.0677 c -0.2659,0 -0.3989,-0.1366 -0.3989,-0.4101 v -5.1293 c 0,-0.2736 -0.1329,-0.4102 -0.3988,-0.4102 h -2.1135 c -0.2659,0 -0.3988,-0.1369 -0.3988,-0.4104 v -4.1854 c 0,-0.2735 0.1329,-0.4102 0.3988,-0.4102 h 2.1135 c 0.2659,0 0.3988,-0.1369 0.3988,-0.4104 v -12.8024 c 0,-0.8479 0.3326,-1.5866 0.997,-2.2159 0.6647,-0.629 1.5024,-0.9436 2.5126,-0.9436 h 5.0247 c 0.2659,0 0.3991,0.1369 0.3991,0.4104 v 4.1854 c 0,0.246 -0.1065,0.383 -0.3191,0.4102 h -3.35 c -0.2659,0 -0.3989,0.1369 -0.3989,0.4104 z m 15.9701,5.4164 c -0.718,0 -1.396,-0.1437 -2.0341,-0.4309 -0.6381,-0.2871 -1.1965,-0.6772 -1.675,-1.1695 -0.4785,-0.4924 -0.8575,-1.0667 -1.1364,-1.7232 -0.2795,-0.6565 -0.4187,-1.3405 -0.4187,-2.0517 v -15.5926 c 0,-0.2735 0.1327,-0.4104 0.3986,-0.4104 h 4.4665 c 0.2659,0 0.3991,0.1369 0.3991,0.4104 v 14.1563 c 0,0.1641 0.0397,0.3489 0.1197,0.5541 0.0793,0.205 0.1924,0.3966 0.3387,0.5743 0.1463,0.1778 0.3124,0.3351 0.4986,0.472 0.186,0.1366 0.3986,0.2052 0.6381,0.2052 h 3.8285 c 0.2656,0 0.3988,0.1367 0.3988,0.4102 v 4.1854 c 0,0.2735 -0.1332,0.4104 -0.3988,0.4104 z m 24.7434,-0.4104 v -14.4026 c 0,-0.2463 -0.1128,-0.4788 -0.3388,-0.6976 -0.2259,-0.2188 -0.5252,-0.4102 -0.8974,-0.5743 -0.3722,-0.1641 -0.7909,-0.2874 -1.2563,-0.3694 -0.4652,-0.0822 -0.9505,-0.1233 -1.4553,-0.1233 -0.5054,0 -0.9973,0.0411 -1.4757,0.1233 -0.4785,0.082 -0.8972,0.2053 -1.2564,0.3694 -0.3588,0.1641 -0.6514,0.3555 -0.8773,0.5743 -0.2259,0.2188 -0.339,0.4513 -0.339,0.6976 v 14.4026 c 0,0.2735 -0.133,0.4104 -0.3988,0.4104 h -4.0678 c -0.2658,0 -0.3988,-0.1369 -0.3988,-0.4104 v -16.1672 c 0,-0.8753 0.2591,-1.6276 0.7776,-2.2566 0.5187,-0.6293 1.1899,-1.1489 2.014,-1.5594 0.8243,-0.4101 1.7614,-0.7112 2.8117,-0.9025 1.0502,-0.1916 2.1203,-0.2874 3.2105,-0.2874 1.0632,0 2.1203,0.0958 3.1702,0.2874 1.0503,0.1913 1.9939,0.4924 2.8316,0.9025 0.8373,0.4105 1.5154,0.9301 2.0338,1.5594 0.5185,0.629 0.7779,1.3813 0.7779,2.2566 v 16.1672 c 0,0.2735 -0.1333,0.4104 -0.3989,0.4104 h -4.068 c -0.2656,0 -0.3988,-0.1369 -0.3988,-0.4104 z m 20.9551,-15.9619 c -1.5951,0 -2.7584,0.4308 -3.4894,1.2926 -0.7314,0.8617 -1.0968,1.9763 -1.0968,3.3443 v 1.7643 c 0,1.3952 0.3787,2.5716 1.1367,3.5288 0.7574,0.9576 1.9075,1.4363 3.4495,1.4363 h 7.5373 c 0.2659,0 0.3991,0.1367 0.3991,0.4102 v 4.1854 c 0,0.2735 -0.1332,0.4104 -0.3991,0.4104 h -6.7396 c -1.7547,0 -3.2704,-0.212 -4.5465,-0.6361 -1.2762,-0.424 -2.3196,-1.0258 -3.1303,-1.8054 -0.8113,-0.7795 -1.4094,-1.7234 -1.7946,-2.8312 -0.3858,-1.1081 -0.5783,-2.3596 -0.5783,-3.7545 v -3.4469 c 0,-1.0395 0.2126,-2.0858 0.6378,-3.1391 0.4255,-1.0531 1.0369,-2.0106 1.8346,-2.8724 0.7976,-0.8617 1.7679,-1.559 2.9112,-2.0925 1.1432,-0.5335 2.446,-0.8002 3.9084,-0.8002 h 7.4973 c 0.2659,0 0.3991,0.1369 0.3991,0.4104 v 4.1854 c 0,0.2735 -0.1332,0.4102 -0.3991,0.4102 z m 22.072,10.9559 c 0,0.2735 0.1326,0.4104 0.3985,0.4104 h 3.2704 c 0.2658,0 0.3988,0.1367 0.3988,0.4102 v 4.1854 c 0,0.2735 -0.133,0.4104 -0.3988,0.4104 h -3.2704 c -0.2659,0 -0.3985,0.1366 -0.3985,0.4102 v 5.1293 c 0,0.2735 -0.1333,0.4101 -0.3989,0.4101 h -4.068 c -0.2659,0 -0.3988,-0.1366 -0.3988,-0.4101 v -5.1293 c 0,-0.2736 -0.1327,-0.4102 -0.3986,-0.4102 h -2.1137 c -0.2659,0 -0.3989,-0.1369 -0.3989,-0.4104 v -4.1854 c 0,-0.2735 0.133,-0.4102 0.3989,-0.4102 h 2.1137 c 0.2659,0 0.3986,-0.1369 0.3986,-0.4104 v -12.8024 c 0,-0.8479 0.3325,-1.5866 0.9969,-2.2159 0.6651,-0.629 1.5024,-0.9436 2.5127,-0.9436 h 5.025 c 0.2658,0 0.3988,0.1369 0.3988,0.4104 v 4.1854 c 0,0.246 -0.1063,0.383 -0.3192,0.4102 h -3.35 c -0.2659,0 -0.3985,0.1369 -0.3985,0.4104 z m 10.8252,-15.5515 c 0,-0.2735 0.1329,-0.4104 0.3988,-0.4104 h 4.0677 c 0.2659,0 0.3989,0.1369 0.3989,0.4104 v 20.5575 c 0,0.2735 -0.133,0.4104 -0.3989,0.4104 h -4.0677 c -0.2659,0 -0.3988,-0.1369 -0.3988,-0.4104 z m 0,28.5999 v -4.1853 c 0,-0.2736 0.1329,-0.4102 0.3988,-0.4102 h 4.0677 c 0.2659,0 0.3989,0.1366 0.3989,0.4102 v 4.1853 c 0,0.2738 -0.133,0.4105 -0.3989,0.4105 h -4.0677 c -0.2659,0 -0.3988,-0.1367 -0.3988,-0.4105 z m 32.1613,-13.7871 c 0,0.985 -0.1794,1.8535 -0.5383,2.6056 -0.3591,0.7523 -0.824,1.3952 -1.3958,1.9287 -0.5717,0.5334 -1.2228,0.9368 -1.9542,1.2104 -0.731,0.2735 -1.4556,0.4104 -2.1733,0.4104 h -8.056 c -0.8507,0 -1.6552,-0.1505 -2.4126,-0.4513 -0.7577,-0.301 -1.4159,-0.7319 -1.9741,-1.2926 -0.5584,-0.5609 -1.0037,-1.2379 -1.3362,-2.0313 -0.3322,-0.7931 -0.4983,-1.6823 -0.4983,-2.6671 v -7.2218 c 0,-0.9576 0.0929,-1.8944 0.2792,-2.8108 0.1862,-0.9165 0.5184,-1.7371 0.9969,-2.4619 0.4785,-0.7249 1.1166,-1.313 1.9142,-1.7646 0.7977,-0.4513 1.808,-0.6769 3.0309,-0.6769 h 7.0985 c 1.2234,0 2.2736,0.123 3.1507,0.3693 0.8776,0.2461 1.6021,0.6838 2.1733,1.313 0.5718,0.6293 0.9972,1.4772 1.2764,2.5441 0.2793,1.067 0.4187,2.4208 0.4187,4.0624 z m -4.9053,-4.4725 v -3.2826 c 0,-0.7115 -0.3521,-1.2994 -1.0568,-1.7645 -0.7044,-0.4649 -1.5355,-0.6976 -2.4925,-0.6976 h -3.6689 c -0.3458,0 -0.718,0.0343 -1.1168,0.1026 -0.3986,0.0683 -0.7708,0.2052 -1.1166,0.4104 -0.3455,0.205 -0.6316,0.4856 -0.8575,0.8411 -0.2259,0.3557 -0.3387,0.807 -0.3387,1.3541 v 6.5653 c 0,0.383 0.0927,0.7112 0.2789,0.9848 0.186,0.2735 0.419,0.4923 0.6979,0.6565 0.2792,0.1641 0.5916,0.2803 0.9374,0.3489 0.3453,0.0683 0.6911,0.1026 1.0369,0.1026 h 4.347 c 0.3988,0 0.7974,-0.0411 1.1965,-0.1233 0.3985,-0.0819 0.7574,-0.212 1.0766,-0.3897 0.3189,-0.1778 0.5782,-0.3966 0.7775,-0.6565 0.1996,-0.26 0.2991,-0.5539 0.2991,-0.8822 z m 16.7677,5.047 c 0,0.2464 0.1265,0.4788 0.3788,0.6977 0.2525,0.2188 0.5252,0.3282 0.8178,0.3282 h 3.8681 c 0.5584,0 1.0769,-0.0479 1.5557,-0.1437 0.4784,-0.0955 0.8971,-0.2668 1.256,-0.5128 0.3589,-0.2463 0.6381,-0.5882 0.8373,-1.0259 0.1996,-0.4376 0.2994,-0.9983 0.2994,-1.6823 v -13.0485 c 0,-0.2735 0.1329,-0.4104 0.3988,-0.4104 H 633.1 c 0.2925,0 0.4385,0.1369 0.4385,0.4104 v 13.9102 c 0,0.9026 -0.1726,1.7782 -0.5185,2.626 -0.3455,0.8482 -0.8305,1.6005 -1.4553,2.257 -0.625,0.6565 -1.3496,1.1832 -2.1736,1.5797 -0.8243,0.3966 -1.7149,0.595 -2.6719,0.595 h -9.0131 c -0.8506,0 -1.5485,-0.2803 -2.0936,-0.8413 -0.5451,-0.5607 -0.8175,-1.1829 -0.8175,-1.8669 v -17.0289 c 0,-0.4376 0.0864,-0.8206 0.2593,-1.1488 0.1727,-0.3283 0.4451,-0.4924 0.8173,-0.4924 h 2.6722 c 0.7444,0 1.1165,0.4377 1.1165,1.313 z"
         style="fill:#161d38;fill-opacity:1;fill-rule:nonzero;stroke:none"
         id="path26" />
    </g>
  </g>
</svg>
